<?xml version="1.0" encoding="UTF-8"?>
<svg width="262px" height="55px" viewBox="0 0 262 55" version="1.1" xmlns="http://www.w3.org/2000/svg" xmlns:xlink="http://www.w3.org/1999/xlink">
    <!-- Generator: Sketch 59.1 (86144) - https://sketch.com -->
    <title>ciencuadras-logo</title>
    <desc>Created with Sketch.</desc>
    <g id="Page-2" stroke="none" stroke-width="1" fill="none" fill-rule="evenodd">
        <g id="ciencuadras-alquilo-mi-apto-desk-1-" transform="translate(-596.000000, -26.000000)" fill="#FFFFFF">
            <g id="Atoms-/-Brand-/-text-logo-desk-invert-lg" transform="translate(596.000000, -13.000000)">
                <g id="Group-29" transform="translate(0.000000, 39.207921)">
                    <path d="M75.2277228,33.5769649 C74.4410669,35.114648 73.3429705,36.3722596 71.9307487,37.3507031 C70.5185269,38.3300501 68.7572769,38.8197236 66.6452088,38.8197236 C65.2464112,38.8197236 63.9621664,38.5785006 62.7960542,38.0942479 C61.630837,37.6108986 60.6240249,36.9360165 59.7765128,36.0677947 C58.9290008,35.2004764 58.2667421,34.178667 57.787947,33.0005595 C57.309152,31.8233556 57.0693069,30.5277988 57.0693069,29.1156961 C57.0693069,27.7017865 57.309152,26.400809 57.787947,25.2109567 C58.2667421,24.0211043 58.9290008,22.9983914 59.7765128,22.1437215 C60.6240249,21.2881481 61.630837,20.6186867 62.7960542,20.1353374 C63.9621664,19.6519881 65.2464112,19.4098618 66.6452088,19.4098618 C68.7322185,19.4098618 70.4880988,19.8932111 71.9128498,20.8608131 C73.3367059,21.8275117 74.3811057,23.0787991 75.0433643,24.6164822 C73.7439055,25.7620652 72.2609831,26.3529258 70.6232354,26.4748925 C70.2061914,25.6328709 69.6719098,24.9941271 69.0212854,24.5604679 C68.3706611,24.1268087 67.5535771,23.9090757 66.5718234,23.9090757 C65.9328333,23.9090757 65.3314309,24.0337527 64.7676161,24.2812998 C64.2020114,24.5288469 63.7053175,24.8766777 63.2757443,25.3220818 C62.8452762,25.7683894 62.5078822,26.3140772 62.2626676,26.9582417 C62.0165579,27.6033098 61.8948455,28.3224612 61.8948455,29.1156961 C61.8948455,29.9080276 62.0165579,30.627179 62.2626676,31.2713436 C62.5078822,31.9164116 62.8452762,32.4611959 63.2757443,32.9075035 C63.7053175,33.3538111 64.2020114,33.7016419 64.7676161,33.949189 C65.3314309,34.1967361 65.9328333,34.3205096 66.5718234,34.3205096 C67.5786355,34.3205096 68.4315173,34.0910317 69.1313635,33.6329792 C69.8321048,33.1740232 70.3905499,32.5108861 70.8084888,31.6435677 C72.5876377,31.5974914 74.0938286,32.1666691 75.2277228,33.5769649" id="Fill-1"></path>
                    <path d="M78.5509534,38.8197236 L78.5509534,20.4281353 C80.5240051,19.9949522 82.1548498,20.0615256 83.5777594,20.4281353 L83.5777594,38.8197236 L78.5509534,38.8197236 Z M81.0452413,17.9512397 C80.60979,17.9512397 80.1939199,17.8700748 79.7976312,17.7077452 C79.40041,17.5445035 79.0554057,17.3201602 78.7616858,17.0319795 C78.4670335,16.7447106 78.2367198,16.4127556 78.0707447,16.0370262 C77.9047697,15.6612968 77.8217822,15.2490888 77.8217822,14.7985784 C77.8217822,14.3480679 77.9047697,13.934948 78.0707447,13.5601306 C78.2367198,13.1844012 78.4670335,12.8533581 78.7616858,12.5651773 C79.0554057,12.2779085 79.40041,12.0526532 79.7976312,11.8903236 C80.1939199,11.7270819 80.60979,11.6459171 81.0452413,11.6459171 C81.9403876,11.6459171 82.7077891,11.9523371 83.3474457,12.5651773 C83.9861699,13.1789294 84.3069307,13.9230924 84.3069307,14.7985784 C84.3069307,15.6749763 83.9861699,16.4191393 83.3474457,17.0319795 C82.7077891,17.6448196 81.9403876,17.9512397 81.0452413,17.9512397 L81.0452413,17.9512397 Z" id="Fill-3"></path>
                    <path d="M100.446344,26.7724724 C100.42252,26.4508269 100.319282,26.0912344 100.137513,25.6945985 C99.9557431,25.2979626 99.6901479,24.9266246 99.3389623,24.5787776 C98.9877766,24.2318341 98.5527653,23.9463286 98.0321634,23.7231644 C97.5106792,23.5000002 96.8877217,23.3888699 96.1615263,23.3888699 C95.1441468,23.3888699 94.2494175,23.686121 93.4746913,24.2815266 C92.6990828,24.8760287 92.1546568,25.7072475 91.8396486,26.7724724 L100.446344,26.7724724 Z M104.768222,33.8378319 C103.944965,35.3249907 102.837583,36.5275474 101.445194,37.4445986 C100.052804,38.3616497 98.3524659,38.8197236 96.3432957,38.8197236 C94.9870838,38.8197236 93.7341099,38.5784894 92.584374,38.0951176 C91.434638,37.6117458 90.4357884,36.9368323 89.587825,36.0685701 C88.7407441,35.2012114 88.0816092,34.1784509 87.609538,33.0011922 C87.1374669,31.8239334 86.9009901,30.5283163 86.9009901,29.1152444 C86.9009901,27.8015574 87.1312902,26.5556327 87.5918905,25.3783739 C88.050726,24.2011152 88.6930958,23.1720302 89.5154702,22.2920225 C90.338727,21.4120148 91.3128701,20.7118034 92.4396643,20.1904846 C93.5646937,19.6700694 94.8053144,19.4098618 96.1615263,19.4098618 C97.590093,19.4098618 98.8607145,19.6519994 99.9751554,20.1353712 C101.087832,20.618743 102.019621,21.2882355 102.771405,22.1429452 C103.520542,22.9985585 104.090557,24.00867 104.477038,25.1732797 C104.865283,26.3396965 105.059406,27.6036912 105.059406,28.9661671 L105.059406,29.4124955 C105.033817,29.5615728 105.023229,29.6980011 105.023229,29.8217804 C104.99764,29.9455597 104.986169,30.081988 104.986169,30.2310653 L91.5855243,30.2310653 C91.6817033,30.9746447 91.8820027,31.6125147 92.18554,32.1455789 C92.4873126,32.6795466 92.8623224,33.1249715 93.3105694,33.484564 C93.7588164,33.8441564 94.2494175,34.104364 94.7814902,34.2651868 C95.3144453,34.4269131 95.8588713,34.5073244 96.416533,34.5073244 C97.5053849,34.5073244 98.4062909,34.2525378 99.1210154,33.7447716 C99.83574,33.2370053 100.397813,32.5982318 100.809883,31.8293544 C102.466985,32.0019226 103.823197,32.6163017 104.768222,33.8378319 L104.768222,33.8378319 Z" id="Fill-5"></path>
                    <path d="M113.400797,23.5683215 L113.690919,23.5683215 C114.245668,22.6854051 114.993832,21.9877707 115.934532,21.4745484 C116.874353,20.961326 117.947806,20.7047149 119.154012,20.7047149 C120.26351,20.7047149 121.240256,20.8839077 122.085127,21.2414236 C122.92912,21.5989395 123.622776,22.1069427 124.165217,22.7628234 C124.707658,23.419574 125.118225,24.2068049 125.396039,25.1262558 C125.672974,26.0448368 125.811881,27.0651923 125.811881,28.1873225 L125.811881,38.8197236 L121.072336,38.8197236 L121.072336,28.7596959 C121.072336,27.4949073 120.787489,26.5580591 120.22219,25.9491512 C119.654253,25.3411132 118.828723,25.0357894 117.742962,25.0357894 C117.091505,25.0357894 116.518294,25.1740985 116.024207,25.4481071 C115.530119,25.7229855 115.107244,26.0926795 114.758218,26.5580591 C114.408313,27.0234387 114.142807,27.5723256 113.962579,28.2047199 C113.781473,28.8371142 113.690919,29.5112622 113.690919,30.2271638 L113.690919,38.8197236 L108.950495,38.8197236 L108.950495,21.2770882 C110.349237,20.4715901 111.842048,20.5550975 113.400797,21.2770882 L113.400797,23.5683215 Z" id="Fill-7"></path>
                    <path d="M146.564356,33.5769649 C145.777701,35.114648 144.679604,36.3722596 143.267382,37.3507031 C141.855161,38.3300501 140.093911,38.8197236 137.981842,38.8197236 C136.583045,38.8197236 135.2988,38.5785006 134.132688,38.0942479 C132.967471,37.6108986 131.960659,36.9360165 131.113147,36.0677947 C130.265634,35.2004764 129.603376,34.178667 129.124581,33.0005595 C128.645786,31.8233556 128.405941,30.5277988 128.405941,29.1156961 C128.405941,27.7017865 128.645786,26.400809 129.124581,25.2109567 C129.603376,24.0211043 130.265634,22.9983914 131.113147,22.1437215 C131.960659,21.2881481 132.967471,20.6186867 134.132688,20.1353374 C135.2988,19.6519881 136.583045,19.4098618 137.981842,19.4098618 C140.068852,19.4098618 141.824732,19.8932111 143.248589,20.8608131 C144.67334,21.8275117 145.716844,23.0787991 146.379998,24.6164822 C145.005364,25.7539341 143.534971,26.3890641 141.958974,26.4748925 C141.54193,25.6328709 141.007649,24.9941271 140.357919,24.5604679 C139.707295,24.1268087 138.890211,23.9090757 137.908457,23.9090757 C137.269467,23.9090757 136.668065,24.0337527 136.10425,24.2812998 C135.53954,24.5288469 135.041056,24.8766777 134.612378,25.3220818 C134.18191,25.7683894 133.844516,26.3140772 133.599301,26.9582417 C133.353192,27.6033098 133.231479,28.3224612 133.231479,29.1156961 C133.231479,29.9080276 133.353192,30.627179 133.599301,31.2713436 C133.844516,31.9164116 134.18191,32.4611959 134.612378,32.9075035 C135.041056,33.3538111 135.53954,33.7016419 136.10425,33.949189 C136.668065,34.1967361 137.269467,34.3205096 137.908457,34.3205096 C138.915269,34.3205096 139.768151,34.0910317 140.467997,33.6329792 C141.168738,33.1740232 141.726289,32.5108861 142.145122,31.6435677 C143.815983,31.6860302 145.292641,32.3184498 146.564356,33.5769649" id="Fill-9"></path>
                    <path d="M162.866298,35.7991505 L162.57704,35.7991505 C162.021382,36.7313808 161.274058,37.4672556 160.333309,38.0086098 C159.39256,38.549964 158.319052,38.8197236 157.112783,38.8197236 C154.869053,38.8197236 153.198564,38.1031174 152.101317,36.6680699 C151.00319,35.2330225 150.455446,33.3199317 150.455446,30.9278801 L150.455446,19.7126723 C152.010759,19.3025276 153.591568,19.3153733 155.194358,19.7126723 L155.194358,30.3241325 C155.194358,31.6582495 155.478342,32.6455328 156.045428,33.2878175 C156.612515,33.9301021 157.438089,34.2512445 158.524786,34.2512445 C159.175397,34.2512445 159.747759,34.1062717 160.242751,33.816326 C160.736864,33.5272979 161.159762,33.1373394 161.509685,32.6455328 C161.858729,32.1555614 162.124249,31.5756701 162.305365,30.9086116 C162.485602,30.2424706 162.57704,29.5304522 162.57704,28.7753089 L162.57704,19.7126723 C164.192138,19.3337243 165.777344,19.2850942 167.316832,19.7126723 L167.316832,38.215976 L162.866298,38.215976 L162.866298,35.7991505 Z" id="Fill-11"></path>
                    <path d="M199.24476,34.3751709 C199.897947,34.3751709 200.519986,34.2600409 201.110877,34.0262111 C201.701769,33.7941661 202.223036,33.4568085 202.675595,33.0168157 C203.128153,32.5750378 203.491849,32.0368721 203.768515,31.4005336 C204.04518,30.764195 204.184429,30.0412858 204.184429,29.233591 C204.184429,28.4250037 204.04518,27.7029871 203.768515,27.065756 C203.491849,26.4294174 203.128153,25.8903593 202.675595,25.4494739 C202.223036,25.0085886 201.701769,24.6730159 201.110877,24.4400785 C200.519986,24.2071411 199.897947,24.0911187 199.24476,24.0911187 C198.590657,24.0911187 197.968617,24.2133885 197.378642,24.4579281 C196.786834,24.7033603 196.266483,25.0460727 195.813925,25.4869581 C195.361366,25.9278434 194.995838,26.4660091 194.721004,27.1032402 C194.443423,27.7395787 194.30509,28.4499932 194.30509,29.233591 C194.30509,30.0171889 194.443423,30.7276033 194.721004,31.3630494 C194.995838,32.0002804 195.361366,32.5384461 195.813925,32.980224 C196.266483,33.4202168 196.786834,33.7638218 197.378642,34.0083614 C197.968617,34.2529011 198.590657,34.3751709 199.24476,34.3751709 L199.24476,34.3751709 Z M204.184429,36.0655289 L203.882113,36.0655289 C203.429554,36.8241373 202.725981,37.473863 201.771393,38.0120287 C200.814974,38.5501945 199.634107,38.8197236 198.226961,38.8197236 C197.045178,38.8197236 195.920193,38.5814313 194.852008,38.1039542 C193.783823,37.6264772 192.841145,36.9651492 192.023974,36.1199702 C191.207719,35.2756837 190.560029,34.2653958 190.082735,33.0899991 C189.605442,31.9146023 189.366337,30.628538 189.366337,29.233591 C189.366337,27.8368591 189.605442,26.5516873 190.082735,25.3762905 C190.560029,24.2008938 191.207719,23.1906059 192.023974,22.3463194 C192.841145,21.5011404 193.783823,20.8398124 194.852008,20.3623353 C195.920193,19.8848583 197.045178,19.646566 198.226961,19.646566 C199.634107,19.646566 200.814974,19.9160951 201.771393,20.4542608 C202.725981,20.993319 203.429554,21.6421523 203.882113,22.4007607 L204.184429,22.4007607 L203.882113,19.830417 L203.882113,11.9328575 C205.458739,11.5348112 207.110487,11.566048 208.821782,11.9328575 L208.821782,38.2324714 L204.184429,38.2324714 L204.184429,36.0655289 Z" id="Fill-13"></path>
                    <path d="M212.712871,21.2770956 L217.198697,21.2770956 L217.198697,23.7109862 L217.491135,23.7109862 C217.710021,23.2821413 218.001573,22.8880911 218.365792,22.5297055 C218.730897,22.1721897 219.137652,21.860777 219.587829,21.5945974 C220.038007,21.3284178 220.523632,21.1135604 221.046476,20.9500252 C221.56932,20.78649 222.085961,20.7038526 222.596399,20.7038526 C223.229129,20.7038526 223.769697,20.7708324 224.218988,20.9030523 C224.669166,21.0361421 225.05288,21.208376 225.368359,21.4206238 C226.1863,22.0208327 225.285945,25.1071244 224.092265,25.6090382 C223.800713,25.46551 223.477258,25.353297 223.125446,25.2689198 C222.772748,25.1854125 222.34118,25.1436588 221.830742,25.1436588 C221.174972,25.1436588 220.578575,25.2697897 220.043324,25.5211816 C219.50896,25.7734433 219.052579,26.1274796 218.675954,26.5832904 C218.299329,27.0391012 218.007776,27.5732002 217.800411,28.1847174 C217.593932,28.7971044 217.491135,29.4625535 217.491135,30.1819343 L217.491135,38.8197236 L212.712871,38.8197236 L212.712871,21.2770956 Z" id="Fill-15"></path>
                    <path d="M239.102973,30.825036 C238.538874,30.5530956 237.957816,30.3353625 237.358015,30.1745473 C236.757321,30.013732 236.103073,29.9324209 235.392594,29.9324209 C234.241189,29.9324209 233.353982,30.1871957 232.729189,30.6949383 C232.104396,31.2035843 231.792892,31.8287763 231.792892,32.5732246 C231.792892,33.3167694 232.092792,33.9112438 232.691701,34.3575514 C233.292396,34.8038589 233.984131,35.0270127 234.768693,35.0270127 C235.404197,35.0270127 235.992395,34.9095634 236.531503,34.6737612 C237.069717,34.4388625 237.528494,34.1289768 237.908725,33.7441043 C238.288064,33.3601353 238.581717,32.9138277 238.790577,32.4060851 C238.998543,31.897439 239.102973,31.3707238 239.102973,30.825036 L239.102973,30.825036 Z M239.102973,36.2909485 L238.80932,36.2909485 C238.245221,36.9857066 237.565089,37.5801811 236.769817,38.0761788 C235.973651,38.571273 234.951668,38.8197236 233.702081,38.8197236 C232.771139,38.8197236 231.896429,38.664329 231.076164,38.3544434 C230.2559,38.0454612 229.539173,37.6181263 228.927768,37.0724385 C228.314578,36.5276541 227.837057,35.8699377 227.494314,35.1010962 C227.150677,34.333158 226.980198,33.490233 226.980198,32.5732246 C226.980198,31.6309193 227.164066,30.7825736 227.530909,30.0254769 C227.898644,29.2701872 228.41276,28.6196984 229.074148,28.0740107 C229.735536,27.5292263 230.512958,27.1136363 231.406412,26.828144 C232.300759,26.5435552 233.274544,26.400809 234.326875,26.400809 C235.502379,26.400809 236.469916,26.493865 237.228593,26.6790737 C237.988163,26.8651857 238.612064,27.057622 239.102973,27.255479 L239.102973,26.6980462 C239.102973,25.7313477 238.722742,24.9317886 237.964064,24.2993689 C237.204494,23.6678528 236.261056,23.351643 235.135536,23.351643 C233.469123,23.351643 232.061553,24.058146 230.91104,25.4711522 C230.265718,25.8198864 226.980198,24.9344989 227.421124,23.0544057 C229.331206,20.6250109 231.940164,19.4098618 235.245321,19.4098618 C238.037254,19.4098618 240.1678,20.0739024 241.637849,21.3992732 C243.106113,22.7255475 243.841584,24.6896622 243.841584,27.2925207 L243.841584,38.2243457 L239.102973,38.2243457 L239.102973,36.2909485 Z" id="Fill-17"></path>
                    <path d="M182.033666,30.825036 C181.469567,30.5521921 180.888509,30.3353625 180.288708,30.1736438 C179.688014,30.013732 179.033766,29.9324209 178.323287,29.9324209 C177.171882,29.9324209 176.284675,30.1871957 175.658989,30.6949383 C175.035089,31.2026809 174.723585,31.8287763 174.723585,32.5723211 C174.723585,33.3158659 175.023485,33.9112438 175.622394,34.3575514 C176.223089,34.8038589 176.914824,35.0261093 177.699386,35.0261093 C178.33489,35.0261093 178.923088,34.9095634 179.461303,34.6737612 C180.00041,34.437959 180.459187,34.1280734 180.839419,33.7432009 C181.218757,33.3601353 181.51241,32.9138277 181.720377,32.4051816 C181.929237,31.897439 182.033666,31.3707238 182.033666,30.825036 L182.033666,30.825036 Z M182.033666,36.2909485 L181.740013,36.2909485 C181.175914,36.9848032 180.495782,37.5801811 179.70051,38.0752753 C178.904344,38.571273 177.882361,38.8197236 176.632774,38.8197236 C175.701832,38.8197236 174.827122,38.664329 174.006857,38.3544434 C173.186593,38.0445578 172.469866,37.6172228 171.858461,37.071535 C171.245271,36.5267507 170.76775,35.8690343 170.425007,35.1010962 C170.08137,34.333158 169.910891,33.490233 169.910891,32.5723211 C169.910891,31.6309193 170.094759,30.7816701 170.461602,30.0254769 C170.829337,29.2692837 171.343453,28.618795 172.004841,28.0740107 C172.66623,27.5283229 173.442758,27.1127328 174.337105,26.828144 C175.231452,26.5435552 176.205237,26.400809 177.257568,26.400809 C178.433072,26.400809 179.400609,26.493865 180.159286,26.6790737 C180.918857,26.8651857 181.542757,27.057622 182.033666,27.255479 L182.033666,26.6980462 C182.033666,25.7313477 181.653435,24.9317886 180.894757,24.2993689 C180.135187,23.6678528 179.191749,23.351643 178.066229,23.351643 C176.399816,23.351643 174.992246,24.0572426 173.840841,25.4702487 C173.196411,25.8198864 169.910891,24.9344989 170.351817,23.0535023 C172.261899,20.6241075 174.870857,19.4098618 178.176014,19.4098618 C180.967947,19.4098618 183.098493,20.0739024 184.568542,21.3992732 C186.036806,22.7255475 186.772277,24.6896622 186.772277,27.2925207 L186.772277,38.2243457 L182.033666,38.2243457 L182.033666,36.2909485 Z" id="Fill-19"></path>
                    <path d="M254.242076,39.5305858 C253.074203,39.5305858 252.032347,39.3820582 251.11917,39.0859031 C250.205993,38.789748 249.415283,38.4008756 248.746152,37.919286 C248.076134,37.4376964 247.509059,36.882293 247.047589,36.2521758 C246.584345,35.6220585 246.231143,34.9865403 245.987984,34.3438207 C246.425493,32.8828488 249.08338,31.9511755 250.261902,32.4921761 C250.674562,33.4310508 251.229213,34.1286806 251.923192,34.5850656 C252.617171,35.0423507 253.389245,35.270093 254.242076,35.270093 C255.118868,35.270093 255.812847,35.1098632 256.324014,34.7885034 C256.836067,34.4680438 257.09165,34.0845724 257.09165,33.6407899 C257.09165,33.1465979 256.877777,32.7451232 256.451805,32.4363657 C256.025833,32.1276083 255.289257,31.8494565 254.242076,31.6028106 L251.721743,31.0465071 C251.161767,30.9231842 250.583155,30.7260475 249.987682,30.4541969 C249.390434,30.1823463 248.849095,29.836682 248.36189,29.4172039 C247.874684,28.9968257 247.472673,28.4900314 247.156744,27.8977212 C246.839928,27.305411 246.681076,26.6140823 246.681076,25.8228351 C246.681076,24.9343698 246.870101,24.1440227 247.248151,23.4526941 C247.625313,22.7613654 248.142692,22.1744562 248.800286,21.6928666 C249.456992,21.2103768 250.229954,20.840408 251.11917,20.5811597 C252.007499,20.3219115 252.964161,20.1922874 253.986493,20.1922874 C255.690381,20.1922874 257.21323,20.5316505 258.551492,21.2103768 C259.890641,21.8909034 260.877475,22.9711045 261.510221,24.45188 C261.38243,25.4969745 258.068723,27.0605654 257.383619,26.1567972 C257.041954,25.4411641 256.543212,24.9217674 255.886505,24.6004076 C255.228024,24.279948 254.571317,24.118818 253.913723,24.118818 C253.231281,24.118818 252.63492,24.2619447 252.123754,24.5454974 C251.612587,24.8290502 251.357004,25.193618 251.357004,25.6383008 C251.357004,26.058679 251.56999,26.391741 251.995962,26.6383869 C252.421934,26.8859329 253.000546,27.1073741 253.73091,27.305411 L256.470442,27.9724351 C258.295908,28.4162177 259.653694,29.1264498 260.54291,30.1022314 C261.431239,31.078013 261.875847,32.2320277 261.875847,33.566076 C261.875847,34.356423 261.693034,35.1098632 261.327408,35.8263966 C260.96267,36.5429299 260.444404,37.1784481 259.775273,37.7338515 C259.105255,38.290155 258.302121,38.7285366 257.36587,39.0489962 C256.427844,39.3694559 255.386876,39.5305858 254.242076,39.5305858" id="Fill-21"></path>
                    <path d="M35.1851925,14.333272 C35.1654777,14.333272 35.1448668,14.333272 35.125152,14.333272 C32.8059744,14.333272 30.5333955,14.977856 28.5565386,16.1533265 C30.4688743,17.160489 28.5574347,16.155117 28.5574347,16.155117 C27.715075,16.6555648 26.9309636,17.255386 26.2158539,17.9402565 C31.092579,18.6958522 34.8249494,22.9071342 34.8249494,27.990395 C34.8249494,33.6081235 30.2663495,38.1622883 24.6431505,38.1622883 C19.0208475,38.1622883 14.4622477,33.6081235 14.4622477,27.990395 C14.4622477,22.8758002 18.2412167,18.6439274 23.161852,17.9277229 C22.4476385,17.2303189 21.6626309,16.6188594 20.8193751,16.1085637 L20.8184789,16.1067732 C18.8389336,14.9089213 16.5573934,14.2446417 14.2247739,14.2338986 L14.162045,14.2338986 C7.09518478,14.2338986 1.33039756,19.9590577 1.2970297,27.0262048 C1.29096796,28.34044 1.42449093,29.6609419 1.69422526,30.9519003 C2.17006888,32.9787588 2.91564684,34.9348922 3.91034819,36.7656897 C4.83335936,38.4138551 6.03237774,40.0718684 7.46438924,41.675271 C12.2192409,46.9984604 18.7555938,50.903565 23.0812005,53.4872724 L23.4916268,53.7334677 C23.8500778,53.948329 24.1906061,54.1524473 24.5141081,54.347613 C24.9648602,54.0799316 25.4469767,53.7979261 25.9568731,53.5007013 C30.4168989,50.8928219 37.1593611,46.9510118 41.9921759,41.4926389 C43.0298913,40.3216447 43.9457335,39.113945 44.716403,37.9026642 C46.1054004,35.6591539 47.101894,33.2007822 47.6691426,30.6117032 C47.876148,29.5033769 47.9845794,28.3726692 47.990099,27.2482282 C48.0231129,20.1604902 42.2789366,14.3672917 35.1851925,14.333272" id="Fill-24"></path>
                    <path d="M13.7957362,11.2416626 C13.8208278,11.2416626 13.8468156,11.2416626 13.8728033,11.2416626 C17.7154071,11.2601902 21.4486831,12.6753456 24.3333243,15.1703951 C27.2394726,12.7026958 30.9799176,11.319302 34.833275,11.3395942 C39.0898906,11.3598863 43.088421,13.0141359 46.0904552,15.9988433 C47.0788861,16.9808058 47.914975,18.0686403 48.5978258,19.2341143 C45.8010053,8.58074699 35.9713596,0.710048035 24.275972,0.710048035 C12.6415212,0.710048035 2.85399359,8.50134301 -0.000179225923,19.0717773 C2.76886128,14.3922361 7.9171259,11.2416626 13.7957362,11.2416626" id="Fill-26"></path>
                </g>
            </g>
        </g>
    </g>
</svg>