<?xml version="1.0" encoding="UTF-8"?>
<svg width="318px" height="260px" viewBox="0 0 318 260" version="1.1" xmlns="http://www.w3.org/2000/svg" xmlns:xlink="http://www.w3.org/1999/xlink">
    <!-- Generator: Sketch 59.1 (86144) - https://sketch.com -->
    <title>form-baño</title>
    <desc>Created with Sketch.</desc>
    <g id="bg-closet" stroke="none" stroke-width="1" fill="none" fill-rule="evenodd" opacity="0.8">
        <path d="M186.607349,266.115504 C168.640435,279.582181 142.288961,274.083952 123.283958,262.450018 C104.278955,250.816085 89.2666004,232.887077 70.7407155,220.137561 C54.7701251,209.141104 36.563652,201.889816 20.6729145,190.813674 C-12.0135414,167.66001 -31.8420857,130.478716 -32.8285635,90.4909183 C-33.8625936,76.9808646 -30.1962031,63.5282712 -22.4476797,52.4017386 C-8.87267782,35.2695762 16.6004139,32.8790419 38.0010051,37.4210571 C59.4015963,41.9630722 79.6043932,51.9236318 101.324396,54.5532195 C121.409846,56.068341 141.603197,53.8803913 160.894699,48.0987769 C180.146402,42.3881664 199.827,38.2311843 219.746324,35.6679986 C239.872169,33.174566 260.242619,37.7074235 277.400156,48.4971993 C294.584117,59.8767469 303.116815,80.532769 298.960453,100.690531 C294.169276,118.061747 278.677803,130.094103 263.346036,139.576556 C248.014269,149.059008 231.404855,158.143039 221.742648,173.362774 C212.080441,188.582509 211.122206,205.236564 208.247499,221.731251 C205.372793,238.225937 200.182351,255.995576 186.607349,266.115504 Z" id="form-baño" fill="#D7D7D7" style="mix-blend-mode: multiply;" transform="translate(133.500000, 154.500000) scale(-1, 1) rotate(-22.000000) translate(-133.500000, -154.500000) "></path>
    </g>
</svg>