<?xml version="1.0" encoding="UTF-8"?>
<svg width="432px" height="410px" viewBox="0 0 432 410" version="1.1" xmlns="http://www.w3.org/2000/svg" xmlns:xlink="http://www.w3.org/1999/xlink">
    <!-- Generator: Sketch 59.1 (86144) - https://sketch.com -->
    <title>Mask Copy</title>
    <desc>Created with Sketch.</desc>
    <defs>
        <linearGradient x1="52.875517%" y1="94.3411594%" x2="52.875517%" y2="-4.0660376%" id="linearGradient-1">
            <stop stop-color="#005886" offset="0%"></stop>
            <stop stop-color="#3E98CC" offset="100%"></stop>
        </linearGradient>
    </defs>
    <g id="bg-closet" stroke="none" stroke-width="1" fill="none" fill-rule="evenodd">
        <path d="M82.587759,101.466341 C95.0386772,84.1410968 100.245425,62.7393251 108.508307,43.0361068 C116.771189,23.3328885 129.788058,3.51643322 150.162288,-2.93806934 C170.536518,-9.3925719 192.72179,-1.01304226 210.153076,11.2165415 C227.584361,23.4461253 242.638653,39.1860526 260.86227,50.1700307 C281.752155,61.0029525 304.149281,68.6371506 327.304897,72.8174081 C350.480408,77.1621601 372.777967,85.3119722 393.294764,96.936865 C413.862172,108.861039 427.491955,129.903337 429.968377,153.555309 C430.873899,180.505688 412.197521,204.172197 391.257341,221.497441 C370.31716,238.822685 345.981274,251.618453 328.097228,271.887856 C310.213182,292.157258 300.026067,318.994401 286.896008,343.227094 C273.765949,367.459788 255.315952,391.239534 228.942643,399.166117 C211.927216,403.505492 193.990593,402.517385 177.554308,396.335194 C161.229508,390.123496 145.630296,382.149806 131.03315,372.555448 C104.988425,357.549298 80.5280029,339.9457 58.025493,320.013533 C35.5237129,299.867787 18.9652342,273.942876 10.146053,245.050713 C1.53771846,215.792862 6.47996741,184.21589 23.6156827,158.990679 C39.9150665,136.909486 66.4015653,124.113718 82.587759,101.466341 Z" id="Mask-Copy" fill="url(#linearGradient-1)" transform="translate(218.000000, 198.326100) rotate(193.000000) translate(-218.000000, -198.326100) "></path>
    </g>
</svg>