<?xml version="1.0" encoding="UTF-8"?>
<svg width="893px" height="806px" viewBox="0 0 893 806" version="1.1" xmlns="http://www.w3.org/2000/svg" xmlns:xlink="http://www.w3.org/1999/xlink">
    <!-- Generator: Sketch 59.1 (86144) - https://sketch.com -->
    <title>form-bg</title>
    <desc>Created with Sketch.</desc>
    <defs>
        <linearGradient x1="18.8462485%" y1="33.6289222%" x2="95.6379471%" y2="33.6289222%" id="linearGradient-1">
            <stop stop-color="#3E98CC" offset="0%"></stop>
            <stop stop-color="#005886" offset="100%"></stop>
        </linearGradient>
    </defs>
    <g id="Archive" stroke="none" stroke-width="1" fill="none" fill-rule="evenodd">
        <path d="M515.706099,779.027619 C463.639816,818.188038 387.275935,802.199464 332.201378,768.36857 C277.12682,734.537675 233.622548,682.401022 179.936425,645.326069 C133.655285,613.348923 80.8947848,592.262543 34.84505,560.053678 C-59.8769619,492.723986 -96.141288,418.524573 -99,302.242065 C-78.633689,144.573608 44.2401298,134.709621 106.256858,147.917573 C168.273586,161.125525 231.200462,222.400033 441.193463,145.045923 C651.186465,67.6918117 729.093594,114.828389 778.814383,146.204515 C828.611747,179.295668 853.338636,239.362343 841.293923,297.980104 C827.409581,348.494727 782.516874,383.484214 738.086979,411.05871 C693.657085,438.633207 645.524698,465.049111 617.524609,509.307336 C589.524519,553.565561 586.74765,601.994718 578.417045,649.960439 C570.08644,697.926159 555.045069,749.599375 515.706099,779.027619 Z" id="form-bg" fill="url(#linearGradient-1)" style="mix-blend-mode: multiply;" transform="translate(372.653212, 452.477668) rotate(32.000000) translate(-372.653212, -452.477668) "></path>
    </g>
</svg>