<?xml version="1.0" encoding="UTF-8"?>
<svg width="628px" height="628px" viewBox="0 0 628 628" version="1.1" xmlns="http://www.w3.org/2000/svg" xmlns:xlink="http://www.w3.org/1999/xlink">
    <!-- Generator: Sketch 59.1 (86144) - https://sketch.com -->
    <title>line-zigzag</title>
    <desc>Created with Sketch.</desc>
    <g id="bg-closet" stroke="none" stroke-width="1" fill="none" fill-rule="evenodd" opacity="0.4">
        <g id="noun_pattern_989914-copy-2" transform="translate(314.000000, 314.000000) rotate(-270.000000) translate(-314.000000, -314.000000) translate(-1.000000, 0.000000)" fill="#3E98CC" fill-rule="nonzero">
            <g id="Group" transform="translate(0.378089, 0.000000)">
                <path d="M570.686015,1.83547109 C572.031566,0.505837842 574.23275,0.519616425 575.5645,1.83547109 L575.5645,1.83547109 L627.288862,53.5051571 C628.634413,54.8485689 628.634413,57.0462529 627.288862,58.3758862 L627.288862,58.3758862 L578.000293,107.599874 L627.288862,156.810083 C628.634413,158.160384 628.634413,160.3374 627.302662,161.687701 L627.302662,161.687701 L578.000293,210.911688 L627.302662,260.121897 C628.634413,261.465309 628.634413,263.649215 627.302662,264.992626 L627.302662,264.992626 L578.000293,314.223503 L627.302662,363.433712 C628.634413,364.763345 628.634413,366.961029 627.302662,368.304441 L627.302662,368.304441 L578.000293,417.528429 L627.302662,466.738638 C627.937486,467.386231 628.3032,468.261171 628.3032,469.177447 C628.3032,470.100612 627.951287,470.975552 627.302662,471.623145 L627.302662,471.623145 L577.979592,520.847133 L627.302662,570.07801 C627.937486,570.725603 628.3032,571.600543 628.3032,572.516819 C628.3032,573.433095 627.951287,574.308035 627.302662,574.955628 L627.302662,574.955628 L575.578301,626.597757 C574.895175,627.266018 574.018842,627.603593 573.128708,627.603593 C572.252375,627.603593 571.362241,627.272907 570.686015,626.597757 C569.340464,625.254345 569.340464,623.07044 570.686015,621.727028 L570.686015,621.727028 L619.974584,572.516819 L570.686015,523.320389 C570.002889,522.638349 569.664776,521.74963 569.678577,520.847133 C569.678577,519.965304 569.995989,519.076585 570.686015,518.387656 L570.686015,518.387656 L619.974584,469.191226 L570.686015,419.981017 C569.340464,418.637605 569.340464,416.453699 570.686015,415.110288 L570.686015,415.110288 L619.974584,365.879411 L570.686015,316.669202 C570.01669,315.994051 569.678577,315.119111 569.678577,314.230393 C569.678577,313.355453 570.00979,312.466734 570.686015,311.791583 L570.686015,311.791583 L619.974584,262.567596 L570.686015,213.343608 C570.01669,212.668458 569.678577,211.793518 569.678577,210.904799 C569.678577,210.029859 570.00979,209.141141 570.686015,208.46599 L570.686015,208.46599 L619.974584,159.242002 L570.686015,110.018015 C569.340464,108.688382 569.340464,106.490698 570.686015,105.147286 L570.686015,105.147286 L619.974584,55.937077 L570.686015,6.70620016 C569.340464,5.37656691 569.340464,3.17888293 570.686015,1.83547109 Z M208.615485,1.78724605 C209.961036,0.457612802 212.162219,0.471391385 213.49397,1.78724605 L213.49397,1.78724605 L265.218331,53.456932 C266.563882,54.8003439 266.563882,56.9980279 265.218331,58.3276611 L265.218331,58.3276611 L215.929762,107.551649 L265.218331,156.761858 C266.563882,158.105269 266.563882,160.289175 265.218331,161.632587 L265.218331,161.632587 L215.929762,210.856574 L265.218331,260.066783 C266.563882,261.410195 266.563882,263.5941 265.218331,264.937512 L265.218331,264.937512 L215.929762,314.1615 L265.218331,363.385487 C266.563882,364.701342 266.563882,366.912804 265.218331,368.256216 L265.218331,368.256216 L215.929762,417.480204 L265.218331,466.690413 C265.846255,467.338006 266.225769,468.219835 266.225769,469.129222 C266.225769,470.038608 265.866956,470.913548 265.218331,471.57492 L265.218331,471.57492 L215.909061,520.798908 L265.218331,570.029785 C265.846255,570.677378 266.225769,571.552318 266.225769,572.468594 C266.225769,573.38487 265.846255,574.25981 265.218331,574.914292 L265.218331,574.914292 L213.50777,626.556421 C212.831544,627.217793 211.941411,627.555368 211.065077,627.555368 C210.181844,627.555368 209.305511,627.231572 208.615485,626.556421 C207.283734,625.213009 207.283734,623.015325 208.615485,621.685692 L208.615485,621.685692 L257.904054,572.461705 L208.615485,523.265274 C207.939259,522.583234 207.601146,521.694516 207.614541,520.792019 C207.608046,519.923968 207.939259,519.035249 208.615485,518.34632 L208.615485,518.34632 L257.904054,469.136111 L208.615485,419.925902 C207.283734,418.58249 207.283734,416.398585 208.615485,415.055173 L208.615485,415.055173 L257.904054,365.831186 L208.615485,316.620977 C207.953059,315.952715 207.614541,315.077775 207.614541,314.175278 C207.614541,313.300338 207.939259,312.41162 208.615485,311.736469 L208.615485,311.736469 L257.904054,262.512482 L208.615485,213.302273 C207.953059,212.627122 207.614541,211.752182 207.614541,210.863463 C207.614541,209.995413 207.939259,209.092916 208.615485,208.417765 L208.615485,208.417765 L257.904054,159.193777 L208.615485,109.983569 C207.953059,109.308418 207.614541,108.433478 207.614541,107.544759 C207.614541,106.676709 207.939259,105.78799 208.615485,105.099061 L208.615485,105.099061 L257.904054,55.8888519 L208.615485,6.65797512 C207.283734,5.32834187 207.283734,3.13065789 208.615485,1.78724605 Z M1.71113829,1.81480322 C3.05668931,0.485169968 5.24407226,0.498948551 6.58962329,1.81480322 L6.58962329,1.81480322 L58.3139848,53.4844892 C59.6595358,54.827901 59.6595358,57.025585 58.3139848,58.3552183 L58.3139848,58.3552183 L9.02541566,107.579206 L58.3139848,156.782525 C59.6595358,158.125937 59.6595358,160.309843 58.3139848,161.653255 L58.3139848,161.653255 L9.02541566,210.877242 L58.3139848,260.080562 C59.6595358,261.423974 59.6595358,263.607879 58.3139848,264.951291 L58.3139848,264.951291 L9.02541566,314.175278 L58.3139848,363.392376 C59.6595358,364.708231 59.6595358,366.919694 58.3139848,368.263106 L58.3139848,368.263106 L9.02541566,417.487093 L58.3208851,466.690413 C58.9626094,467.338006 59.3283233,468.219835 59.3283233,469.129222 C59.3283233,470.038608 58.9695097,470.913548 58.3208851,471.57492 L58.3208851,471.57492 L9.01161514,520.798908 L58.3208851,570.029785 C58.9626094,570.677378 59.3283233,571.552318 59.3283233,572.468594 C59.3283233,573.38487 58.9626094,574.25981 58.3277853,574.907403 L58.3277853,574.907403 L6.60342381,626.549532 C5.92029791,627.217793 5.04396467,627.555368 4.15383092,627.555368 C3.27749769,627.555368 2.38736393,627.224682 1.71113829,626.549532 C0.365587258,625.20612 0.365587258,623.022215 1.71113829,621.678803 L1.71113829,621.678803 L50.9997074,572.468594 L1.71113829,523.272164 C1.02801238,522.590124 0.689899557,521.701405 0.703700081,520.798908 C0.703700081,519.917079 1.02111212,519.02836 1.71113829,518.339431 L1.71113829,518.339431 L50.9997074,469.14989 L1.71113829,419.939681 C0.365587258,418.596269 0.365587258,416.398585 1.71113829,415.068952 L1.71113829,415.068952 L50.9997074,365.844964 L1.71113829,316.634755 C1.0418129,315.959605 0.703700081,315.084665 0.703700081,314.195946 C0.703700081,313.321006 1.03491264,312.432288 1.71113829,311.757137 L1.71113829,311.757137 L50.9997074,262.52626 L1.71113829,213.316051 C1.0418129,212.640901 0.703700081,211.765961 0.703700081,210.877242 C0.703700081,210.002302 1.03491264,209.113583 1.71113829,208.438433 L1.71113829,208.438433 L50.9997074,159.221335 L1.71113829,109.997347 C0.365587258,108.653935 0.365587258,106.47003 1.71113829,105.126618 L1.71113829,105.126618 L50.9997074,55.9164091 L1.71113829,6.68553229 C0.365587258,5.35589903 0.365587258,3.15821506 1.71113829,1.81480322 Z M518.961654,1.78724605 C520.307205,0.457612802 522.494588,0.471391385 523.840139,1.78724605 L523.840139,1.78724605 L575.5645,53.456932 C576.910051,54.8003439 576.910051,56.9980279 575.5645,58.3276611 L575.5645,58.3276611 L526.275931,107.551649 L575.5645,156.761858 C576.910051,158.105269 576.910051,160.289175 575.5645,161.632587 L575.5645,161.632587 L526.275931,210.856574 L575.5645,260.066783 C576.910051,261.410195 576.910051,263.5941 575.5645,264.937512 L575.5645,264.937512 L526.275931,314.1615 L575.5645,363.385487 C576.910051,364.701342 576.910051,366.912804 575.5645,368.256216 L575.5645,368.256216 L526.275931,417.480204 L575.5645,466.690413 C576.206225,467.338006 576.571938,468.219835 576.571938,469.129222 C576.571938,470.038608 576.213125,470.913548 575.5645,471.57492 L575.5645,471.57492 L526.25523,520.798908 L575.5645,570.029785 C576.206225,570.677378 576.571938,571.552318 576.571938,572.468594 C576.571938,573.38487 576.213125,574.25981 575.578301,574.900514 L575.578301,574.900514 L523.853939,626.542643 C523.170813,627.210904 522.29448,627.548479 521.404346,627.548479 C520.528013,627.548479 519.637879,627.217793 518.961654,626.542643 C517.616103,625.199231 517.616103,623.015325 518.961654,621.671914 L518.961654,621.671914 L568.250223,572.461705 L518.961654,523.265274 C518.278528,522.583234 517.940415,521.694516 517.954215,520.792019 C517.954215,519.910189 518.271628,519.021471 518.961654,518.332542 L518.961654,518.332542 L568.250223,469.136111 L518.961654,419.925902 C517.616103,418.58249 517.616103,416.384806 518.961654,415.055173 L518.961654,415.055173 L568.250223,365.824296 L518.961654,316.614087 C518.306129,315.938937 517.954215,315.063997 517.954215,314.175278 C517.954215,313.300338 518.285428,312.41162 518.961654,311.736469 L518.961654,311.736469 L568.250223,262.505592 L518.961654,213.295383 C518.306129,212.620233 517.954215,211.745293 517.954215,210.856574 C517.954215,209.981634 518.285428,209.092916 518.961654,208.417765 L518.961654,208.417765 L568.250223,159.193777 L518.961654,109.96979 C517.616103,108.626378 517.616103,106.442473 518.961654,105.099061 L518.961654,105.099061 L568.250223,55.8888519 L518.961654,6.65797512 C517.616103,5.32834187 517.616103,3.13065789 518.961654,1.78724605 Z M467.237292,1.78724605 C468.582843,0.457612802 470.784027,0.471391385 472.115777,1.78724605 L472.115777,1.78724605 L523.840139,53.456932 C525.18569,54.8003439 525.18569,56.9980279 523.840139,58.3276611 L523.840139,58.3276611 L474.55157,107.551649 L523.840139,156.761858 C525.18569,158.105269 525.18569,160.289175 523.840139,161.632587 L523.840139,161.632587 L474.55157,210.856574 L523.840139,260.066783 C525.18569,261.410195 525.18569,263.5941 523.840139,264.937512 L523.840139,264.937512 L474.55157,314.1615 L523.840139,363.385487 C525.18569,364.701342 525.18569,366.912804 523.840139,368.256216 L523.840139,368.256216 L474.55157,417.480204 L523.840139,466.690413 C524.481863,467.338006 524.847577,468.219835 524.847577,469.129222 C524.847577,470.038608 524.488763,470.913548 523.840139,471.57492 L523.840139,471.57492 L474.530869,520.798908 L523.840139,570.029785 C524.481863,570.677378 524.847577,571.552318 524.847577,572.468594 C524.847577,573.38487 524.488763,574.25981 523.853939,574.900514 L523.853939,574.900514 L472.129578,626.542643 C471.460252,627.210904 470.570119,627.548479 469.679985,627.548479 C468.803652,627.548479 467.913518,627.217793 467.237292,626.542643 C465.891741,625.199231 465.891741,623.015325 467.237292,621.671914 L467.237292,621.671914 L516.525861,572.461705 L467.237292,523.265274 C466.567967,522.583234 466.216053,521.694516 466.229854,520.792019 C466.229854,519.910189 466.561067,519.021471 467.237292,518.332542 L467.237292,518.332542 L516.525861,469.136111 L467.237292,419.925902 C465.891741,418.58249 465.891741,416.384806 467.237292,415.055173 L467.237292,415.055173 L516.525861,365.824296 L467.237292,316.614087 C466.581767,315.938937 466.229854,315.063997 466.229854,314.175278 C466.229854,313.300338 466.561067,312.41162 467.237292,311.736469 L467.237292,311.736469 L516.525861,262.505592 L467.237292,213.295383 C466.581767,212.620233 466.229854,211.745293 466.229854,210.856574 C466.229854,209.981634 466.561067,209.092916 467.237292,208.417765 L467.237292,208.417765 L516.525861,159.193777 L467.237292,109.96979 C465.891741,108.626378 465.891741,106.442473 467.237292,105.099061 L467.237292,105.099061 L516.525861,55.8888519 L467.237292,6.65797512 C465.891741,5.32834187 465.891741,3.13065789 467.237292,1.78724605 Z M415.512931,1.78724605 C416.858482,0.457612802 419.045865,0.471391385 420.391416,1.78724605 L420.391416,1.78724605 L472.115777,53.456932 C473.461328,54.8003439 473.461328,56.9980279 472.115777,58.3276611 L472.115777,58.3276611 L422.827208,107.551649 L472.115777,156.761858 C473.461328,158.105269 473.461328,160.289175 472.115777,161.632587 L472.115777,161.632587 L422.827208,210.856574 L472.115777,260.066783 C473.461328,261.410195 473.461328,263.5941 472.115777,264.937512 L472.115777,264.937512 L422.827208,314.1615 L472.115777,363.385487 C473.461328,364.701342 473.461328,366.912804 472.115777,368.256216 L472.115777,368.256216 L422.827208,417.480204 L472.115777,466.690413 C472.757502,467.338006 473.123215,468.219835 473.123215,469.129222 C473.123215,470.038608 472.764402,470.913548 472.115777,471.57492 L472.115777,471.57492 L422.806507,520.798908 L472.115777,570.029785 C472.757502,570.677378 473.123215,571.552318 473.123215,572.468594 C473.123215,573.38487 472.764402,574.25981 472.129578,574.900514 L472.129578,574.900514 L420.405216,626.542643 C419.728991,627.210904 418.838857,627.548479 417.962524,627.548479 C417.07929,627.548479 416.189156,627.217793 415.512931,626.542643 C414.16738,625.199231 414.16738,623.015325 415.512931,621.671914 L415.512931,621.671914 L464.8015,572.461705 L415.512931,523.265274 C414.836705,522.583234 414.484792,521.694516 414.512393,520.792019 C414.505492,519.910189 414.836705,519.021471 415.512931,518.332542 L415.512931,518.332542 L464.8015,469.136111 L415.512931,419.925902 C414.16738,418.58249 414.16738,416.384806 415.512931,415.055173 L415.512931,415.055173 L464.8015,365.824296 L415.512931,316.614087 C414.850506,315.938937 414.512393,315.063997 414.512393,314.175278 C414.512393,313.300338 414.836705,312.41162 415.512931,311.736469 L415.512931,311.736469 L464.8015,262.505592 L415.512931,213.295383 C414.850506,212.620233 414.512393,211.745293 414.512393,210.856574 C414.512393,209.981634 414.836705,209.092916 415.512931,208.417765 L415.512931,208.417765 L464.8015,159.193777 L415.512931,109.96979 C414.16738,108.626378 414.16738,106.442473 415.512931,105.099061 L415.512931,105.099061 L464.8015,55.8888519 L415.512931,6.65797512 C414.16738,5.32834187 414.16738,3.13065789 415.512931,1.78724605 Z M363.788569,1.78724605 C365.13412,0.457612802 367.321503,0.471391385 368.667054,1.78724605 L368.667054,1.78724605 L420.391416,53.456932 C421.736967,54.8003439 421.736967,56.9980279 420.391416,58.3276611 L420.391416,58.3276611 L371.102847,107.551649 L420.391416,156.761858 C421.736967,158.105269 421.736967,160.289175 420.391416,161.632587 L420.391416,161.632587 L371.102847,210.856574 L420.391416,260.066783 C421.736967,261.410195 421.736967,263.5941 420.391416,264.937512 L420.391416,264.937512 L371.102847,314.1615 L420.391416,363.385487 C421.736967,364.701342 421.736967,366.912804 420.391416,368.256216 L420.391416,368.256216 L371.102847,417.480204 L420.391416,466.690413 C421.03314,467.338006 421.398854,468.219835 421.398854,469.129222 C421.398854,470.038608 421.04004,470.913548 420.391416,471.57492 L420.391416,471.57492 L371.082146,520.798908 L420.391416,570.029785 C421.03314,570.677378 421.398854,571.552318 421.398854,572.468594 C421.398854,573.38487 421.03314,574.25981 420.405216,574.900514 L420.405216,574.900514 L368.680855,626.542643 C368.004629,627.210904 367.114495,627.548479 366.238162,627.548479 C365.354929,627.548479 364.464795,627.217793 363.788569,626.542643 C362.443018,625.199231 362.443018,623.015325 363.788569,621.671914 L363.788569,621.671914 L413.090939,572.461705 L363.788569,523.265274 C363.112343,522.583234 362.774231,521.694516 362.788031,520.792019 C362.781131,519.910189 363.112343,519.021471 363.788569,518.332542 L363.788569,518.332542 L413.090939,469.136111 L363.788569,419.925902 C362.443018,418.58249 362.443018,416.384806 363.788569,415.055173 L363.788569,415.055173 L413.090939,365.824296 L363.788569,316.614087 C363.126144,315.938937 362.788031,315.063997 362.788031,314.175278 C362.788031,313.300338 363.112343,312.41162 363.788569,311.736469 L363.788569,311.736469 L413.090939,262.505592 L363.788569,213.295383 C363.126144,212.620233 362.788031,211.745293 362.788031,210.856574 C362.788031,209.981634 363.112343,209.092916 363.788569,208.417765 L363.788569,208.417765 L413.090939,159.193777 L363.788569,109.96979 C362.443018,108.626378 362.443018,106.442473 363.788569,105.099061 L363.788569,105.099061 L413.090939,55.8888519 L363.788569,6.65797512 C362.443018,5.32834187 362.443018,3.13065789 363.788569,1.78724605 Z M312.064208,1.78724605 C313.409759,0.457612802 315.597142,0.471391385 316.942693,1.78724605 L316.942693,1.78724605 L368.667054,53.456932 C370.012605,54.8003439 370.012605,56.9980279 368.667054,58.3276611 L368.667054,58.3276611 L319.378485,107.551649 L368.667054,156.761858 C370.012605,158.105269 370.012605,160.289175 368.667054,161.632587 L368.667054,161.632587 L319.378485,210.856574 L368.667054,260.066783 C370.012605,261.410195 370.012605,263.5941 368.667054,264.937512 L368.667054,264.937512 L319.378485,314.1615 L368.667054,363.385487 C370.012605,364.701342 370.012605,366.912804 368.667054,368.256216 L368.667054,368.256216 L319.378485,417.480204 L368.667054,466.690413 C369.308778,467.338006 369.674492,468.219835 369.674492,469.129222 C369.674492,470.038608 369.315679,470.913548 368.667054,471.57492 L368.667054,471.57492 L319.357784,520.798908 L368.667054,570.029785 C369.308778,570.677378 369.674492,571.552318 369.674492,572.468594 C369.674492,573.38487 369.308778,574.25981 368.680855,574.900514 L368.680855,574.900514 L316.956493,626.542643 C316.280268,627.210904 315.390134,627.548479 314.513801,627.548479 C313.630567,627.548479 312.740433,627.217793 312.064208,626.542643 C310.718657,625.199231 310.718657,623.015325 312.064208,621.671914 L312.064208,621.671914 L361.366577,572.461705 L312.064208,523.265274 C311.387982,522.583234 311.049869,521.694516 311.06367,520.792019 C311.056769,519.910189 311.387982,519.021471 312.064208,518.332542 L312.064208,518.332542 L361.366577,469.136111 L312.064208,419.925902 C310.718657,418.58249 310.718657,416.384806 312.064208,415.055173 L312.064208,415.055173 L361.366577,365.824296 L312.064208,316.614087 C311.401783,315.938937 311.06367,315.063997 311.06367,314.175278 C311.06367,313.300338 311.387982,312.41162 312.064208,311.736469 L312.064208,311.736469 L361.366577,262.505592 L312.064208,213.295383 C311.401783,212.620233 311.06367,211.745293 311.06367,210.856574 C311.06367,209.981634 311.387982,209.092916 312.064208,208.417765 L312.064208,208.417765 L361.366577,159.193777 L312.064208,109.96979 C310.718657,108.626378 310.718657,106.442473 312.064208,105.099061 L312.064208,105.099061 L361.366577,55.8888519 L312.064208,6.65797512 C310.718657,5.32834187 310.718657,3.13065789 312.064208,1.78724605 Z M156.891123,1.78724605 C158.236674,0.457612802 160.437858,0.471391385 161.769608,1.78724605 L161.769608,1.78724605 L213.49397,53.456932 C214.839521,54.8003439 214.839521,56.9980279 213.49397,58.3276611 L213.49397,58.3276611 L164.2054,107.551649 L213.49397,156.761858 C214.839521,158.105269 214.839521,160.289175 213.49397,161.632587 L213.49397,161.632587 L164.2054,210.856574 L213.49397,260.066783 C214.839521,261.410195 214.839521,263.5941 213.49397,264.937512 L213.49397,264.937512 L164.2054,314.1615 L213.49397,363.385487 C214.839521,364.701342 214.839521,366.912804 213.49397,368.256216 L213.49397,368.256216 L164.2054,417.480204 L213.49397,466.690413 C214.135694,467.338006 214.501408,468.219835 214.501408,469.129222 C214.501408,470.038608 214.156395,470.913548 213.49397,471.57492 L213.49397,471.57492 L164.1847,520.798908 L213.49397,570.029785 C214.135694,570.677378 214.501408,571.552318 214.501408,572.468594 C214.501408,573.38487 214.135694,574.25981 213.50777,574.900514 L213.50777,574.900514 L161.783409,626.542643 C161.107183,627.210904 160.217049,627.548479 159.340716,627.548479 C158.457482,627.548479 157.581149,627.217793 156.891123,626.542643 C155.559373,625.199231 155.559373,623.015325 156.891123,621.671914 L156.891123,621.671914 L206.193493,572.461705 L156.891123,523.265274 C156.214897,522.583234 155.876785,521.694516 155.890179,520.792019 C155.883685,519.910189 156.214897,519.021471 156.891123,518.332542 L156.891123,518.332542 L206.193493,469.136111 L156.891123,419.925902 C155.559373,418.58249 155.559373,416.384806 156.891123,415.055173 L156.891123,415.055173 L206.193493,365.824296 L156.891123,316.614087 C156.228698,315.938937 155.890179,315.063997 155.890179,314.175278 C155.890179,313.300338 156.214897,312.41162 156.891123,311.736469 L156.891123,311.736469 L206.193493,262.505592 L156.891123,213.295383 C156.228698,212.620233 155.890179,211.745293 155.890179,210.856574 C155.890179,209.981634 156.214897,209.092916 156.891123,208.417765 L156.891123,208.417765 L206.193493,159.193777 L156.891123,109.96979 C155.559373,108.626378 155.559373,106.442473 156.891123,105.099061 L156.891123,105.099061 L206.193493,55.8888519 L156.891123,6.65797512 C155.559373,5.32834187 155.559373,3.13065789 156.891123,1.78724605 Z M105.180562,1.78724605 C106.512313,0.457612802 108.713496,0.471391385 110.045247,1.78724605 L110.045247,1.78724605 L161.769608,53.456932 C163.115159,54.8003439 163.115159,56.9980279 161.769608,58.3276611 L161.769608,58.3276611 L112.481039,107.551649 L161.769608,156.761858 C163.115159,158.105269 163.115159,160.289175 161.769608,161.632587 L161.769608,161.632587 L112.481039,210.856574 L161.769608,260.066783 C163.115159,261.410195 163.115159,263.5941 161.769608,264.937512 L161.769608,264.937512 L112.481039,314.1615 L161.769608,363.385487 C163.115159,364.701342 163.115159,366.912804 161.769608,368.256216 L161.769608,368.256216 L112.481039,417.480204 L161.769608,466.690413 C162.411332,467.338006 162.777046,468.219835 162.777046,469.129222 C162.777046,470.038608 162.432033,470.913548 161.769608,471.57492 L161.769608,471.57492 L112.460338,520.798908 L161.769608,570.029785 C162.411332,570.677378 162.777046,571.552318 162.777046,572.468594 C162.777046,573.38487 162.411332,574.25981 161.790309,574.900514 L161.790309,574.900514 L110.065947,626.542643 C109.389722,627.210904 108.499588,627.548479 107.623255,627.548479 C106.733121,627.548479 105.856788,627.217793 105.180562,626.542643 C103.835011,625.199231 103.835011,623.015325 105.180562,621.671914 L105.180562,621.671914 L154.469131,572.461705 L105.180562,523.265274 C104.497436,522.583234 104.159323,521.694516 104.173124,520.792019 C104.159323,519.910189 104.490536,519.021471 105.180562,518.332542 L105.180562,518.332542 L154.469131,469.136111 L105.180562,419.925902 C103.835011,418.58249 103.835011,416.384806 105.180562,415.055173 L105.180562,415.055173 L154.469131,365.824296 L105.180562,316.614087 C104.511237,315.938937 104.173124,315.063997 104.173124,314.175278 C104.173124,313.300338 104.490536,312.41162 105.180562,311.736469 L105.180562,311.736469 L154.469131,262.505592 L105.180562,213.295383 C104.511237,212.620233 104.173124,211.745293 104.173124,210.856574 C104.173124,209.981634 104.490536,209.092916 105.180562,208.417765 L105.180562,208.417765 L154.469131,159.193777 L105.180562,109.96979 C103.835011,108.626378 103.835011,106.442473 105.180562,105.099061 L105.180562,105.099061 L154.469131,55.8888519 L105.180562,6.65797512 C103.835011,5.32834187 103.835011,3.13065789 105.180562,1.78724605 Z M53.4562006,1.78724605 C54.7879511,0.457612802 56.9891346,0.471391385 58.3346856,1.78724605 L58.3346856,1.78724605 L110.045247,53.456932 C111.390798,54.8003439 111.390798,56.9980279 110.045247,58.3276611 L110.045247,58.3276611 L60.7566774,107.551649 L110.045247,156.761858 C111.390798,158.105269 111.390798,160.289175 110.045247,161.632587 L110.045247,161.632587 L60.7566774,210.856574 L110.045247,260.066783 C111.390798,261.410195 111.390798,263.5941 110.045247,264.937512 L110.045247,264.937512 L60.7566774,314.1615 L110.045247,363.385487 C111.390798,364.701342 111.390798,366.912804 110.045247,368.256216 L110.045247,368.256216 L60.7566774,417.480204 L110.045247,466.690413 C110.686971,467.338006 111.052685,468.219835 111.052685,469.129222 C111.052685,470.038608 110.707672,470.913548 110.045247,471.57492 L110.045247,471.57492 L60.7359767,520.798908 L110.045247,570.029785 C110.686971,570.677378 111.052685,571.552318 111.052685,572.468594 C111.052685,573.38487 110.686971,574.25981 110.065947,574.900514 L110.065947,574.900514 L58.3415858,626.542643 C57.6653602,627.210904 56.7752264,627.548479 55.8988932,627.548479 C55.0087595,627.548479 54.1324262,627.217793 53.4562006,626.542643 C52.1106496,625.199231 52.1106496,623.015325 53.4562006,621.671914 L53.4562006,621.671914 L102.74477,572.461705 L53.4562006,523.265274 C52.7730747,522.583234 52.4349619,521.694516 52.4487624,520.792019 C52.4349619,519.910189 52.7661744,519.021471 53.4562006,518.332542 L53.4562006,518.332542 L102.74477,469.136111 L53.4562006,419.925902 C52.1106496,418.58249 52.1106496,416.384806 53.4562006,415.055173 L53.4562006,415.055173 L102.74477,365.824296 L53.4562006,316.614087 C52.7868752,315.938937 52.4487624,315.063997 52.4487624,314.175278 C52.4487624,313.300338 52.7661744,312.41162 53.4562006,311.736469 L53.4562006,311.736469 L102.74477,262.505592 L53.4562006,213.295383 C52.7868752,212.620233 52.4487624,211.745293 52.4487624,210.856574 C52.4487624,209.981634 52.7661744,209.092916 53.4562006,208.417765 L53.4562006,208.417765 L102.74477,159.193777 L53.4562006,109.96979 C52.1106496,108.626378 52.1106496,106.442473 53.4562006,105.099061 L53.4562006,105.099061 L102.74477,55.8888519 L53.4562006,6.65797512 C52.1106496,5.32834187 52.1106496,3.13065789 53.4562006,1.78724605 Z M260.339846,1.78724605 C261.685397,0.457612802 263.886581,0.471391385 265.218331,1.78724605 L265.218331,1.78724605 L316.942693,53.456932 C318.288244,54.8003439 318.288244,56.9980279 316.942693,58.3276611 L316.942693,58.3276611 L267.654123,107.551649 L316.942693,156.761858 C318.288244,158.105269 318.288244,160.289175 316.942693,161.632587 L316.942693,161.632587 L267.654123,210.856574 L316.942693,260.066783 C318.288244,261.410195 318.288244,263.5941 316.942693,264.937512 L316.942693,264.937512 L267.654123,314.1615 L316.942693,363.385487 C318.288244,364.701342 318.288244,366.912804 316.942693,368.256216 L316.942693,368.256216 L267.654123,417.480204 L316.942693,466.690413 C317.584417,467.338006 317.950131,468.219835 317.950131,469.129222 C317.950131,470.038608 317.591317,470.913548 316.942693,471.57492 L316.942693,471.57492 L267.633423,520.798908 L316.942693,570.029785 C317.584417,570.677378 317.950131,571.552318 317.950131,572.468594 C317.950131,573.38487 317.584417,574.25981 316.963393,574.900514 L316.963393,574.900514 L265.225231,626.542643 C264.549006,627.204015 263.672673,627.54159 262.782539,627.54159 C261.906206,627.54159 261.016072,627.217793 260.339846,626.542643 C258.994295,625.199231 258.994295,623.001547 260.339846,621.671914 L260.339846,621.671914 L309.642216,572.447926 L260.339846,523.251496 C259.64982,522.569456 259.325508,521.680737 259.339308,520.77824 C259.332408,519.910189 259.64982,519.021471 260.339846,518.332542 L260.339846,518.332542 L309.642216,469.122333 L260.339846,419.912124 C258.994295,418.568712 258.994295,416.384806 260.339846,415.041395 L260.339846,415.041395 L309.642216,365.817407 L260.339846,316.607198 C258.994295,315.263786 258.994295,313.079881 260.339846,311.736469 L260.339846,311.736469 L309.642216,262.505592 L260.339846,213.295383 C259.670521,212.620233 259.332408,211.745293 259.332408,210.856574 C259.332408,209.981634 259.66362,209.092916 260.339846,208.417765 L260.339846,208.417765 L309.642216,159.193777 L260.339846,109.96979 C258.994295,108.626378 258.994295,106.442473 260.339846,105.099061 L260.339846,105.099061 L309.642216,55.8888519 L260.339846,6.65797512 C258.994295,5.32834187 258.994295,3.13065789 260.339846,1.78724605 Z" id="line-zigzag"></path>
            </g>
        </g>
    </g>
</svg>