<?xml version="1.0" encoding="UTF-8"?>
<svg width="386px" height="378px" viewBox="0 0 386 378" version="1.1" xmlns="http://www.w3.org/2000/svg" xmlns:xlink="http://www.w3.org/1999/xlink">
    <!-- Generator: Sketch 59.1 (86144) - https://sketch.com -->
    <title>lines</title>
    <desc>Created with Sketch.</desc>
    <g id="bg-closet" stroke="none" stroke-width="1" fill="none" fill-rule="evenodd">
        <g id="noun_texture_1890041-(1)-copy-2" style="mix-blend-mode: multiply;" fill="#FFAA00">
            <path d="M2.99297651,68.416378 L382.873784,374.239947 L380.403809,377.302115 L0.523001212,71.4785453 L2.99297651,68.416378 Z M3.00432186,170.622944 L258.007185,374.232396 L255.546642,377.302111 L0.543778016,173.692659 L3.00432186,170.622944 Z M3.01318198,204.544252 L215.055726,374.215395 L212.591963,377.282536 L0.549418664,207.611393 L3.01318198,204.544252 Z M3.01375917,102.303693 L342.667421,374.183276 L340.206019,377.252313 L0.552357674,105.372729 L3.01375917,102.303693 Z M2.99790776,340.260448 L45.3153113,374.182367 L42.8488671,377.247361 L0.531463613,343.325442 L2.99790776,340.260448 Z M2.96667796,238.446014 L172.709654,374.17298 L170.246964,377.24098 L0.503987498,241.514014 L2.96667796,238.446014 Z M3.00378783,272.366435 L129.986708,374.156809 L127.520264,377.221804 L0.537343678,275.43143 L3.00378783,272.366435 Z M3.03287389,306.278461 L87.6983902,374.146915 L85.2319461,377.21191 L0.566429744,309.343455 L3.03287389,306.278461 Z M3.01149261,136.683133 L300.231398,371.885795 L297.787201,374.968498 L0.567295891,139.765837 L3.01149261,136.683133 Z M3.00568709,34.4610779 L385.437483,340.254632 L382.977691,343.324954 L0.545895302,37.5313999 L3.00568709,34.4610779 Z M2.95480315,0.526892455 L385.386599,306.320447 L382.926807,309.390769 L0.495011366,3.59721449 L2.95480315,0.526892455 Z M45.3378222,0.487377471 L385.4078,270.08184 L382.96091,273.162414 L42.8909322,3.56795175 L45.3378222,0.487377471 Z M87.6710344,0.51723417 L385.43753,238.441898 L382.978811,241.513076 L85.2123161,3.58841263 L87.6710344,0.51723417 Z M129.98366,0.514114012 L385.412198,204.536432 L382.951118,207.605718 L127.522579,3.58340032 L129.98366,0.514114012 Z M172.724574,0.501642394 L385.410495,170.565909 L382.947805,173.633908 L170.261884,3.56964215 L172.724574,0.501642394 Z M215.698941,0.516661988 L385.4123,136.657342 L382.944784,139.721477 L213.231425,3.58079706 L215.698941,0.516661988 Z M258.006789,0.488594723 L385.414611,102.692614 L382.947095,105.756749 L255.539273,3.55272979 L258.006789,0.488594723 Z M300.325483,1.43927527 L385.388128,68.3676675 L382.949656,71.454877 L297.887011,4.52648475 L300.325483,1.43927527 Z M343.084644,0.490024194 L385.402047,34.4119433 L382.935603,37.4769378 L340.618199,3.55501874 L343.084644,0.490024194 Z" id="lines"></path>
        </g>
    </g>
</svg>