<?xml version="1.0" encoding="UTF-8"?>
<svg width="532px" height="436px" viewBox="0 0 532 436" version="1.1" xmlns="http://www.w3.org/2000/svg" xmlns:xlink="http://www.w3.org/1999/xlink">
    <!-- Generator: Sketch 59.1 (86144) - https://sketch.com -->
    <title>Mask</title>
    <desc>Created with Sketch.</desc>
    <defs>
        <linearGradient x1="52.875517%" y1="94.3411594%" x2="52.875517%" y2="-4.0660376%" id="linearGradient-1">
            <stop stop-color="#005886" offset="0%"></stop>
            <stop stop-color="#3E98CC" offset="100%"></stop>
        </linearGradient>
        <path d="M462.592959,87.0460292 C459.28856,91.223258 457.021153,96.2261803 456.206838,101.492414 C454.152356,114.72464 460.86843,127.857717 469.504078,138.091115 C473.287965,142.577167 477.676493,146.806408 482.937851,149.515917 C488.753464,152.51312 496.540664,153.553364 503.064943,153.416832 C509.269021,153.286801 515.668146,151.393232 520.069677,147.014456 C524.825542,142.278096 526.639467,135.332844 527.310749,128.652529 C528.082805,120.936846 527.583813,113.01799 525.283899,105.585123 C523.144898,98.6740039 517.662488,93.4045191 512.992769,88.099276 C503.016181,76.760619 486.885901,71.5236419 472.808478,78.6395593 C468.839298,80.6469047 465.352856,83.5595872 462.592959,87.0460292 Z M391.250117,13.5864878 C420.846677,26.0596606 436.000103,50.5350988 441.245207,81.0825068 C444.60812,100.673222 444.877933,120.780809 449.617544,140.083832 C457.016277,170.207016 478.338024,183.657043 497.972624,205.201466 C523.72841,233.468465 536.742834,273.64788 529.716313,311.238063 C522.689791,348.828246 494.744618,382.437872 458.202805,393.708263 C427.969096,403.031447 395.482608,397.313358 364.015235,394.052844 C317.58298,389.243342 269.447325,390.210443 225.893619,407.005504 C210.306217,413.016162 195.50875,420.978903 179.770187,426.57834 C126.475573,445.538408 41.2454768,437.185576 10.272219,382.520766 C-4.07501789,357.198958 -2.1538177,325.20171 8.41440869,298.085481 C30.8219093,240.586007 83.0925326,200.803185 107.196931,143.822208 C118.50308,117.09282 126.833157,88.1415359 144.886262,65.0838829 C156.579252,50.1515089 171.103656,37.5222995 187.729677,28.3567768 C201.633185,20.6898553 216.893886,14.8271065 232.835621,10.4775873 C268.582623,0.725302078 307.754301,-1.41694991 342.734123,0.796818836 C359.278875,1.84356411 375.973162,7.14997957 391.250117,13.5864878 Z" id="path-2"></path>
    </defs>
    <g id="Page-1" stroke="none" stroke-width="1" fill="none" fill-rule="evenodd">
        <mask id="mask-3" fill="white">
            <use xlink:href="#path-2"></use>
        </mask>
        <use id="Mask" fill="url(#linearGradient-1)" xlink:href="#path-2"></use>
    </g>
</svg>