<?xml version="1.0" encoding="UTF-8"?>
<svg width="22px" height="41px" viewBox="0 0 22 41" version="1.1" xmlns="http://www.w3.org/2000/svg" xmlns:xlink="http://www.w3.org/1999/xlink">
    <!-- Generator: Sketch 59.1 (86144) - https://sketch.com -->
    <title>scroll-down</title>
    <desc>Created with Sketch.</desc>
    <g id="Page-2" stroke="none" stroke-width="1" fill="none" fill-rule="evenodd">
        <g id="Group-Copy" fill="#333333" fill-rule="nonzero">
            <path d="M14.0298507,33.6318408 C14.6268657,33.0845771 15.5721393,33.0845771 16.1691542,33.681592 C16.7661692,34.278607 16.7661692,35.2238806 16.1691542,35.8208955 L16.1691542,35.8208955 L11.9900498,40 C11.6915423,40.2985075 11.2935323,40.4477612 10.9452736,40.4477612 C10.5970149,40.4477612 10.199005,40.2985075 9.90049751,40 L9.90049751,40 L5.72139303,35.8208955 C5.12437811,35.2238806 5.12437811,34.278607 5.72139303,33.681592 C6.31840796,33.0845771 7.26368159,33.0845771 7.86069652,33.681592 L7.86069652,33.681592 L10.9452736,36.7661692 Z M10.9452736,0.248756219 C16.7661692,0.248756219 21.4925373,4.97512438 21.4925373,10.7960199 L21.4925373,10.7960199 L21.4925373,20.8457711 C21.4925373,26.6666667 16.7661692,31.3930348 10.9452736,31.3930348 C5.12437811,31.3930348 0.39800995,26.6666667 0.39800995,20.8457711 L0.39800995,20.8457711 L0.39800995,10.7960199 C0.39800995,4.97512438 5.12437811,0.248756219 10.9452736,0.248756219 Z M10.9452736,3.23383085 C6.76616915,3.23383085 3.38308458,6.61691542 3.38308458,10.7960199 L3.38308458,10.7960199 L3.38308458,20.8457711 C3.38308458,25.0248756 6.76616915,28.4079602 10.9452736,28.4079602 C15.1243781,28.4079602 18.5074627,25.0248756 18.5074627,20.8457711 L18.5074627,20.8457711 L18.5074627,10.7960199 C18.5074627,6.61691542 15.1243781,3.23383085 10.9452736,3.23383085 Z M10.9452736,6.51741294 C11.7910448,6.51741294 12.4378109,7.21393035 12.4378109,8.00995025 L12.4378109,8.00995025 L12.4378109,12.039801 C12.4378109,12.8855721 11.7910448,13.5323383 10.9452736,13.5323383 C10.0995025,13.5323383 9.45273632,12.8855721 9.45273632,12.039801 L9.45273632,12.039801 L9.45273632,8.00995025 C9.45273632,7.1641791 10.0995025,6.51741294 10.9452736,6.51741294 Z" id="scroll-down"></path>
        </g>
    </g>
</svg>