<?xml version="1.0" encoding="UTF-8"?>
<svg width="91px" height="91px" viewBox="0 0 91 91" version="1.1" xmlns="http://www.w3.org/2000/svg" xmlns:xlink="http://www.w3.org/1999/xlink">
    <!-- Generator: Sketch 59.1 (86144) - https://sketch.com -->
    <title>texture-triangle-gray</title>
    <desc>Created with Sketch.</desc>
    <g id="Page-2" stroke="none" stroke-width="1" fill="none" fill-rule="evenodd">
        <path d="M43.3488726,88.5651532 L43.46,88.57 C43.9071952,88.6178754 44.246325,88.9952493 44.246325,89.445 C44.246325,89.8947507 43.9071952,90.2721246 43.46,90.32 C43.1250573,90.355858 42.7990337,90.1973649 42.620343,89.9118092 C42.4416524,89.6262536 42.4416524,89.2637464 42.620343,88.9781908 C42.7990337,88.6926351 43.1250573,88.534142 43.46,88.57 Z M61.8888726,88.5651532 L62,88.57 C62.4471952,88.6178754 62.786325,88.9952493 62.786325,89.445 C62.786325,89.8947507 62.4471952,90.2721246 62,90.32 C61.6650573,90.355858 61.3390337,90.1973649 61.160343,89.9118092 C60.9816524,89.6262536 60.9816524,89.2637464 61.160343,88.9781908 C61.3390337,88.6926351 61.6650573,88.534142 62,88.57 Z M10.6685943,88.6289579 C10.9983218,88.4901925 11.3792392,88.5648437 11.6321978,88.8178022 C11.8851563,89.0707608 11.9598075,89.4516782 11.8210421,89.7814057 C11.6822768,90.1111332 11.3577146,90.3240424 11,90.32 C10.5195123,90.32 10.13,89.9304877 10.13,89.45 C10.1259576,89.0922854 10.3388668,88.7677232 10.6685943,88.6289579 Z M15.2662518,88.6298912 C15.5947433,88.4905276 15.9748754,88.5633282 16.2286313,88.8142005 C16.4823872,89.0650728 16.5595273,89.4443481 16.4239268,89.7744109 C16.2883263,90.1044737 15.9668318,90.319977 15.61,90.32 C15.3775339,90.3226722 15.1536683,90.2321928 14.9883424,90.0687456 C14.8230165,89.9052984 14.7299846,89.6824815 14.73,89.45 C14.7259451,89.0931912 14.9377602,88.7692549 15.2662518,88.6298912 Z M19.9062518,88.6298912 C20.2347433,88.4905276 20.6148754,88.5633282 20.8686313,88.8142005 C21.1223872,89.0650728 21.1995273,89.4443481 21.0639268,89.7744109 C20.9283263,90.1044737 20.6068318,90.319977 20.25,90.32 C20.0175339,90.3226722 19.7936683,90.2321928 19.6283424,90.0687456 C19.4630165,89.9052984 19.3699846,89.6824815 19.37,89.45 C19.3659451,89.0931912 19.5777602,88.7692549 19.9062518,88.6298912 Z M24.5462518,88.6298912 C24.8747433,88.4905276 25.2548754,88.5633282 25.5086313,88.8142005 C25.7623872,89.0650728 25.8395273,89.4443481 25.7039268,89.7744109 C25.5683263,90.1044737 25.2468318,90.319977 24.89,90.32 C24.407868,90.3200311 24.0154788,89.9321008 24.01,89.45 C24.0059451,89.0931912 24.2177602,88.7692549 24.5462518,88.6298912 Z M29.1985943,88.6289579 C29.5283218,88.4901925 29.9092392,88.5648437 30.1621978,88.8178022 C30.4151563,89.0707608 30.4898075,89.4516782 30.3510421,89.7814057 C30.2122768,90.1111332 29.8877146,90.3240424 29.53,90.32 C29.0495123,90.32 28.66,89.9304877 28.66,89.45 C28.6559576,89.0922854 28.8688668,88.7677232 29.1985943,88.6289579 Z M33.8385943,88.6289579 C34.1683218,88.4901925 34.5492392,88.5648437 34.8021978,88.8178022 C35.0551563,89.0707608 35.1298075,89.4516782 34.9910421,89.7814057 C34.8522768,90.1111332 34.5277146,90.3240424 34.17,90.32 C33.6895123,90.32 33.3,89.9304877 33.3,89.45 C33.2959576,89.0922854 33.5088668,88.7677232 33.8385943,88.6289579 Z M38.4762518,88.6298912 C38.8047433,88.4905276 39.1848754,88.5633282 39.4386313,88.8142005 C39.6923872,89.0650728 39.7695273,89.4443481 39.6339268,89.7744109 C39.4983263,90.1044737 39.1768318,90.319977 38.82,90.32 C38.5875339,90.3226722 38.3636683,90.2321928 38.1983424,90.0687456 C38.0330165,89.9052984 37.9399846,89.6824815 37.94,89.45 C37.9359451,89.0931912 38.1477602,88.7692549 38.4762518,88.6298912 Z M1.33625175,88.6298912 C1.66474334,88.4905276 2.04487542,88.5633282 2.29863131,88.8142005 C2.55238719,89.0650728 2.62952733,89.4443481 2.49392681,89.7744109 C2.35832629,90.1044737 2.03683183,90.319977 1.68,90.32 C1.4475339,90.3226722 1.2236683,90.2321928 1.05834242,90.0687456 C0.893016534,89.9052984 0.799984642,89.6824815 0.8,89.45 C0.795945094,89.0931912 1.00776017,88.7692549 1.33625175,88.6298912 Z M47.7685943,88.6289579 C48.0983218,88.4901925 48.4792392,88.5648437 48.7321978,88.8178022 C48.9851563,89.0707608 49.0598075,89.4516782 48.9210421,89.7814057 C48.7822768,90.1111332 48.4577146,90.3240424 48.1,90.32 C47.6195123,90.32 47.23,89.9304877 47.23,89.45 C47.2259576,89.0922854 47.4388668,88.7677232 47.7685943,88.6289579 Z M52.4085943,88.6289579 C52.7383218,88.4901925 53.1192392,88.5648437 53.3721978,88.8178022 C53.6251563,89.0707608 53.6998075,89.4516782 53.5610421,89.7814057 C53.4222768,90.1111332 53.0977146,90.3240424 52.74,90.32 C52.2595123,90.32 51.87,89.9304877 51.87,89.45 C51.8659576,89.0922854 52.0788668,88.7677232 52.4085943,88.6289579 Z M57.0462518,88.6298912 C57.3747433,88.4905276 57.7548754,88.5633282 58.0086313,88.8142005 C58.2623872,89.0650728 58.3395273,89.4443481 58.2039268,89.7744109 C58.0683263,90.1044737 57.7468318,90.319977 57.39,90.32 C57.1575339,90.3226722 56.9336683,90.2321928 56.7683424,90.0687456 C56.6030165,89.9052984 56.5099846,89.6824815 56.51,89.45 C56.5059451,89.0931912 56.7177602,88.7692549 57.0462518,88.6298912 Z M5.98859425,88.6289579 C6.31832175,88.4901925 6.69923924,88.5648437 6.95219778,88.8178022 C7.20515632,89.0707608 7.27980748,89.4516782 7.14104213,89.7814057 C7.00227679,90.1111332 6.67771456,90.3240424 6.32,90.32 C5.84176867,90.3145957 5.45540426,89.9282313 5.45,89.45 C5.44595764,89.0922854 5.65886675,88.7677232 5.98859425,88.6289579 Z M66.3385943,88.6289579 C66.6683218,88.4901925 67.0492392,88.5648437 67.3021978,88.8178022 C67.5551563,89.0707608 67.6298075,89.4516782 67.4910421,89.7814057 C67.3522768,90.1111332 67.0277146,90.3240424 66.67,90.32 C66.1917687,90.3145957 65.8054043,89.9282313 65.8,89.45 C65.7959576,89.0922854 66.0088668,88.7677232 66.3385943,88.6289579 Z M70.9785943,88.6289579 C71.3083218,88.4901925 71.6892392,88.5648437 71.9421978,88.8178022 C72.1951563,89.0707608 72.2698075,89.4516782 72.1310421,89.7814057 C71.9922768,90.1111332 71.6677146,90.3240424 71.31,90.32 C70.8295123,90.32 70.44,89.9304877 70.44,89.45 C70.4359576,89.0922854 70.6488668,88.7677232 70.9785943,88.6289579 Z M75.6562518,88.6298912 C75.9847433,88.4905276 76.3648754,88.5633282 76.6186313,88.8142005 C76.8723872,89.0650728 76.9495273,89.4443481 76.8139268,89.7744109 C76.6783263,90.1044737 76.3568318,90.319977 76,90.32 C75.7675339,90.3226722 75.5436683,90.2321928 75.3783424,90.0687456 C75.2130165,89.9052984 75.1199846,89.6824815 75.12,89.45 C75.1159451,89.0931912 75.3277602,88.7692549 75.6562518,88.6298912 Z M80.2562518,88.6298912 C80.5847433,88.4905276 80.9648754,88.5633282 81.2186313,88.8142005 C81.4723872,89.0650728 81.5495273,89.4443481 81.4139268,89.7744109 C81.2783263,90.1044737 80.9568318,90.319977 80.6,90.32 C80.3675339,90.3226722 80.1436683,90.2321928 79.9783424,90.0687456 C79.8130165,89.9052984 79.7199846,89.6824815 79.72,89.45 C79.7159451,89.0931912 79.9277602,88.7692549 80.2562518,88.6298912 Z M84.9085943,88.6289579 C85.2383218,88.4901925 85.6192392,88.5648437 85.8721978,88.8178022 C86.1251563,89.0707608 86.1998075,89.4516782 86.0610421,89.7814057 C85.9222768,90.1111332 85.5977146,90.3240424 85.24,90.32 C84.7617687,90.3145957 84.3754043,89.9282313 84.37,89.45 C84.3659576,89.0922854 84.5788668,88.7677232 84.9085943,88.6289579 Z M89.5485943,88.6289579 C89.8783218,88.4901925 90.2592392,88.5648437 90.5121978,88.8178022 C90.7651563,89.0707608 90.8398075,89.4516782 90.7010421,89.7814057 C90.5622768,90.1111332 90.2377146,90.3240424 89.88,90.32 C89.3995123,90.32 89.01,89.9304877 89.01,89.45 C89.0059576,89.0922854 89.2188668,88.7677232 89.5485943,88.6289579 Z M6.32,83.93 C6.6549427,83.894142 6.98096627,84.0526351 7.15965696,84.3381908 C7.33834764,84.6237464 7.33834764,84.9862536 7.15965696,85.2718092 C6.98096627,85.5573649 6.6549427,85.715858 6.32,85.68 C5.87280475,85.6321246 5.53367497,85.2547507 5.53367497,84.805 C5.53367497,84.3552493 5.87280475,83.9778754 6.32,83.93 Z M85.24,83.93 C85.5749427,83.894142 85.9009663,84.0526351 86.079657,84.3381908 C86.2583476,84.6237464 86.2583476,84.9862536 86.079657,85.2718092 C85.9009663,85.5573649 85.5749427,85.715858 85.24,85.68 C84.7928048,85.6321246 84.453675,85.2547507 84.453675,84.805 C84.453675,84.3552493 84.7928048,83.9778754 85.24,83.93 Z M43.46,83.92 C43.9460106,83.92 44.34,84.3139894 44.34,84.8 C44.34,85.2860106 43.9460106,85.68 43.46,85.68 C42.9739894,85.68 42.58,85.2860106 42.58,84.8 C42.58,84.3139894 42.9739894,83.92 43.46,83.92 Z M47.7755891,83.9860732 C48.1056519,83.8504727 48.4849272,83.9276128 48.7357995,84.1813687 C48.9866718,84.4351246 49.0594724,84.8152567 48.9201088,85.1437482 C48.7807451,85.4722398 48.4568088,85.6840549 48.1,85.68 C47.8675185,85.6800154 47.6447016,85.5869835 47.4812544,85.4216576 C47.3178072,85.2563317 47.2273278,85.0324661 47.23,84.8 C47.230023,84.4431682 47.4455263,84.1216737 47.7755891,83.9860732 Z M52.4155891,83.9860732 C52.7456519,83.8504727 53.1249272,83.9276128 53.3757995,84.1813687 C53.6266718,84.4351246 53.6994724,84.8152567 53.5601088,85.1437482 C53.4207451,85.4722398 53.0968088,85.6840549 52.74,85.68 C52.5075185,85.6800154 52.2847016,85.5869835 52.1212544,85.4216576 C51.9578072,85.2563317 51.8673278,85.0324661 51.87,84.8 C51.870023,84.4431682 52.0855263,84.1216737 52.4155891,83.9860732 Z M57.39,83.92 C57.8760106,83.92 58.27,84.3139894 58.27,84.8 C58.27,85.2860106 57.8760106,85.68 57.39,85.68 C56.9039894,85.68 56.51,85.2860106 56.51,84.8 C56.51,84.3139894 56.9039894,83.92 57.39,83.92 Z M66.67,83.92 C67.1560106,83.92 67.55,84.3139894 67.55,84.8 C67.55,85.2860106 67.1560106,85.68 66.67,85.68 C66.1839894,85.68 65.79,85.2860106 65.79,84.8 C65.79,84.3139894 66.1839894,83.92 66.67,83.92 Z M70.9855891,83.9860732 C71.3156519,83.8504727 71.6949272,83.9276128 71.9457995,84.1813687 C72.1966718,84.4351246 72.2694724,84.8152567 72.1301088,85.1437482 C71.9907451,85.4722398 71.6668088,85.6840549 71.31,85.68 C71.0775185,85.6800154 70.8547016,85.5869835 70.6912544,85.4216576 C70.5278072,85.2563317 70.4373278,85.0324661 70.44,84.8 C70.440023,84.4431682 70.6555263,84.1216737 70.9855891,83.9860732 Z M80.6,83.92 C81.0860106,83.92 81.48,84.3139894 81.48,84.8 C81.48,85.2860106 81.0860106,85.68 80.6,85.68 C80.1139894,85.68 79.72,85.2860106 79.72,84.8 C79.72,84.3139894 80.1139894,83.92 80.6,83.92 Z M10.96,83.92 C11.4460106,83.92 11.84,84.3139894 11.84,84.8 C11.84,85.2860106 11.4460106,85.68 10.96,85.68 C10.4739894,85.68 10.08,85.2860106 10.08,84.8 C10.08,84.3139894 10.4739894,83.92 10.96,83.92 Z M89.88,83.92 C90.3660106,83.92 90.76,84.3139894 90.76,84.8 C90.76,85.2860106 90.3660106,85.68 89.88,85.68 C89.3939894,85.68 89,85.2860106 89,84.8 C89,84.3139894 89.3939894,83.92 89.88,83.92 Z M20.25,83.92 C20.7360106,83.92 21.13,84.3139894 21.13,84.8 C21.13,85.2860106 20.7360106,85.68 20.25,85.68 C19.7639894,85.68 19.37,85.2860106 19.37,84.8 C19.37,84.3139894 19.7639894,83.92 20.25,83.92 Z M24.89,83.92 C25.3760106,83.92 25.77,84.3139894 25.77,84.8 C25.77,85.2860106 25.3760106,85.68 24.89,85.68 C24.4039894,85.68 24.01,85.2860106 24.01,84.8 C24.01,84.3139894 24.4039894,83.92 24.89,83.92 Z M29.2055891,83.9860732 C29.5356519,83.8504727 29.9149272,83.9276128 30.1657995,84.1813687 C30.4166718,84.4351246 30.4894724,84.8152567 30.3501088,85.1437482 C30.2107451,85.4722398 29.8868088,85.6840549 29.53,85.68 C29.2975185,85.6800154 29.0747016,85.5869835 28.9112544,85.4216576 C28.7478072,85.2563317 28.6573278,85.0324661 28.66,84.8 C28.660023,84.4431682 28.8755263,84.1216737 29.2055891,83.9860732 Z M34.17,83.92 C34.6560106,83.92 35.05,84.3139894 35.05,84.8 C35.05,85.2860106 34.6560106,85.68 34.17,85.68 C33.6839894,85.68 33.29,85.2860106 33.29,84.8 C33.29,84.3139894 33.6839894,83.92 34.17,83.92 Z M38.82,83.92 C39.3060106,83.92 39.7,84.3139894 39.7,84.8 C39.7,85.2860106 39.3060106,85.68 38.82,85.68 C38.5857898,85.6827079 38.3603816,85.5908637 38.194759,85.425241 C38.0291363,85.2596184 37.9372921,85.0342102 37.94,84.8 C37.94,84.3139894 38.3339894,83.92 38.82,83.92 Z M15.61,83.92 C16.0960106,83.92 16.49,84.3139894 16.49,84.8 C16.49,85.2860106 16.0960106,85.68 15.61,85.68 C15.3757898,85.6827079 15.1503816,85.5908637 14.984759,85.425241 C14.8191363,85.2596184 14.7272921,85.0342102 14.73,84.8 C14.73,84.3139894 15.1239894,83.92 15.61,83.92 Z M76,83.92 C76.4860106,83.92 76.88,84.3139894 76.88,84.8 C76.88,85.2860106 76.4860106,85.68 76,85.68 C75.7657898,85.6827079 75.5403816,85.5908637 75.374759,85.425241 C75.2091363,85.2596184 75.1172921,85.0342102 75.12,84.8 C75.12,84.3139894 75.5139894,83.92 76,83.92 Z M62,83.92 C62.4860106,83.92 62.88,84.3139894 62.88,84.8 C62.88,85.2860106 62.4860106,85.68 62,85.68 C61.7657898,85.6827079 61.5403816,85.5908637 61.374759,85.425241 C61.2091363,85.2596184 61.1172921,85.0342102 61.12,84.8 C61.12,84.3139894 61.5139894,83.92 62,83.92 Z M85.24,79.25 C85.5749427,79.214142 85.9009663,79.3726351 86.079657,79.6581908 C86.2583476,79.9437464 86.2583476,80.3062536 86.079657,80.5918092 C85.9009663,80.8773649 85.5749427,81.035858 85.24,81 C84.7928048,80.9521246 84.453675,80.5747507 84.453675,80.125 C84.453675,79.6752493 84.7928048,79.2978754 85.24,79.25 Z M66.67,79.25 C67.0049427,79.214142 67.3309663,79.3726351 67.509657,79.6581908 C67.6883476,79.9437464 67.6883476,80.3062536 67.509657,80.5918092 C67.3309663,80.8773649 67.0049427,81.035858 66.67,81 C66.2228048,80.9521246 65.883675,80.5747507 65.883675,80.125 C65.883675,79.6752493 66.2228048,79.2978754 66.67,79.25 Z M76,79.24 C76.4860106,79.24 76.88,79.6339894 76.88,80.12 C76.88,80.6060106 76.4860106,81 76,81 C75.7657898,81.0027079 75.5403816,80.9108637 75.374759,80.745241 C75.2091363,80.5796184 75.1172921,80.3542102 75.12,80.12 C75.12,79.6339894 75.5139894,79.24 76,79.24 Z M80.6,79.24 C81.0860106,79.24 81.48,79.6339894 81.48,80.12 C81.48,80.6060106 81.0860106,81 80.6,81 C80.3657898,81.0027079 80.1403816,80.9108637 79.974759,80.745241 C79.8091363,80.5796184 79.7172921,80.3542102 79.72,80.12 C79.72,79.6339894 80.1139894,79.24 80.6,79.24 Z M20.25,79.24 C20.7360106,79.24 21.13,79.6339894 21.13,80.12 C21.13,80.6060106 20.7360106,81 20.25,81 C20.0157898,81.0027079 19.7903816,80.9108637 19.624759,80.745241 C19.4591363,80.5796184 19.3672921,80.3542102 19.37,80.12 C19.37,79.6339894 19.7639894,79.24 20.25,79.24 Z M24.89,79.24 C25.3760106,79.24 25.77,79.6339894 25.77,80.12 C25.77,80.6060106 25.3760106,81 24.89,81 C24.4039894,81 24.01,80.6060106 24.01,80.12 C24.01,79.6339894 24.4039894,79.24 24.89,79.24 Z M38.82,79.24 C39.3060106,79.24 39.7,79.6339894 39.7,80.12 C39.7,80.6060106 39.3060106,81 38.82,81 C38.5857898,81.0027079 38.3603816,80.9108637 38.194759,80.745241 C38.0291363,80.5796184 37.9372921,80.3542102 37.94,80.12 C37.94,79.6339894 38.3339894,79.24 38.82,79.24 Z M43.46,79.24 C43.9460106,79.24 44.34,79.6339894 44.34,80.12 C44.34,80.6060106 43.9460106,81 43.46,81 C43.2257898,81.0027079 43.0003816,80.9108637 42.834759,80.745241 C42.6691363,80.5796184 42.5772921,80.3542102 42.58,80.12 C42.58,79.6339894 42.9739894,79.24 43.46,79.24 Z M57.39,79.24 C57.8760106,79.24 58.27,79.6339894 58.27,80.12 C58.27,80.6060106 57.8760106,81 57.39,81 C57.1557898,81.0027079 56.9303816,80.9108637 56.764759,80.745241 C56.5991363,80.5796184 56.5072921,80.3542102 56.51,80.12 C56.51,79.6339894 56.9039894,79.24 57.39,79.24 Z M62,79.24 C62.4860106,79.24 62.88,79.6339894 62.88,80.12 C62.88,80.6060106 62.4860106,81 62,81 C61.7657898,81.0027079 61.5403816,80.9108637 61.374759,80.745241 C61.2091363,80.5796184 61.1172921,80.3542102 61.12,80.12 C61.12,79.6339894 61.5139894,79.24 62,79.24 Z M15.61,79.24 C16.0960106,79.24 16.49,79.6339894 16.49,80.12 C16.49,80.6060106 16.0960106,81 15.61,81 C15.3757898,81.0027079 15.1503816,80.9108637 14.984759,80.745241 C14.8191363,80.5796184 14.7272921,80.3542102 14.73,80.12 C14.73,79.6339894 15.1239894,79.24 15.61,79.24 Z M33.8455891,79.3060732 C34.1756519,79.1704727 34.5549272,79.2476128 34.8057995,79.5013687 C35.0566718,79.7551246 35.1294724,80.1352567 34.9901088,80.4637482 C34.8507451,80.7922398 34.5268088,81.0040549 34.17,81 C33.9375185,81.0000154 33.7147016,80.9069835 33.5512544,80.7416576 C33.3878072,80.5763317 33.2973278,80.3524661 33.3,80.12 C33.300023,79.7631682 33.5155263,79.4416737 33.8455891,79.3060732 Z M47.7755891,79.3060732 C48.1056519,79.1704727 48.4849272,79.2476128 48.7357995,79.5013687 C48.9866718,79.7551246 49.0594724,80.1352567 48.9201088,80.4637482 C48.7807451,80.7922398 48.4568088,81.0040549 48.1,81 C47.8675185,81.0000154 47.6447016,80.9069835 47.4812544,80.7416576 C47.3178072,80.5763317 47.2273278,80.3524661 47.23,80.12 C47.230023,79.7631682 47.4455263,79.4416737 47.7755891,79.3060732 Z M70.9855891,79.3060732 C71.3156519,79.1704727 71.6949272,79.2476128 71.9457995,79.5013687 C72.1966718,79.7551246 72.2694724,80.1352567 72.1301088,80.4637482 C71.9907451,80.7922398 71.6668088,81.0040549 71.31,81 C71.0775185,81.0000154 70.8547016,80.9069835 70.6912544,80.7416576 C70.5278072,80.5763317 70.4373278,80.3524661 70.44,80.12 C70.440023,79.7631682 70.6555263,79.4416737 70.9855891,79.3060732 Z M10.6755891,79.3060732 C11.0056519,79.1704727 11.3849272,79.2476128 11.6357995,79.5013687 C11.8866718,79.7551246 11.9594724,80.1352567 11.8201088,80.4637482 C11.6807451,80.7922398 11.3568088,81.0040549 11,81 C10.7675185,81.0000154 10.5447016,80.9069835 10.3812544,80.7416576 C10.2178072,80.5763317 10.1273278,80.3524661 10.13,80.12 C10.130023,79.7631682 10.3455263,79.4416737 10.6755891,79.3060732 Z M29.2055891,79.3060732 C29.5356519,79.1704727 29.9149272,79.2476128 30.1657995,79.5013687 C30.4166718,79.7551246 30.4894724,80.1352567 30.3501088,80.4637482 C30.2107451,80.7922398 29.8868088,81.0040549 29.53,81 C29.2975185,81.0000154 29.0747016,80.9069835 28.9112544,80.7416576 C28.7478072,80.5763317 28.6573278,80.3524661 28.66,80.12 C28.660023,79.7631682 28.8755263,79.4416737 29.2055891,79.3060732 Z M52.4155891,79.3060732 C52.7456519,79.1704727 53.1249272,79.2476128 53.3757995,79.5013687 C53.6266718,79.7551246 53.6994724,80.1352567 53.5601088,80.4637482 C53.4207451,80.7922398 53.0968088,81.0040549 52.74,81 C52.5075185,81.0000154 52.2847016,80.9069835 52.1212544,80.7416576 C51.9578072,80.5763317 51.8673278,80.3524661 51.87,80.12 C51.870023,79.7631682 52.0855263,79.4416737 52.4155891,79.3060732 Z M89.5555891,79.3060732 C89.8856519,79.1704727 90.2649272,79.2476128 90.5157995,79.5013687 C90.7666718,79.7551246 90.8394724,80.1352567 90.7001088,80.4637482 C90.5607451,80.7922398 90.2368088,81.0040549 89.88,81 C89.6475185,81.0000154 89.4247016,80.9069835 89.2612544,80.7416576 C89.0978072,80.5763317 89.0073278,80.3524661 89.01,80.12 C89.010023,79.7631682 89.2255263,79.4416737 89.5555891,79.3060732 Z M80.6,74.64 C81.0860106,74.64 81.48,75.0339894 81.48,75.52 C81.48,76.0060106 81.0860106,76.4 80.6,76.4 C80.1139894,76.4 79.72,76.0060106 79.72,75.52 C79.72,75.0339894 80.1139894,74.64 80.6,74.64 Z M43.46,74.64 C43.9460106,74.64 44.34,75.0339894 44.34,75.52 C44.34,76.0060106 43.9460106,76.4 43.46,76.4 C42.9739894,76.4 42.58,76.0060106 42.58,75.52 C42.58,75.0339894 42.9739894,74.64 43.46,74.64 Z M66.67,74.64 C67.1560106,74.64 67.55,75.0339894 67.55,75.52 C67.55,76.0060106 67.1560106,76.4 66.67,76.4 C66.1839894,76.4 65.79,76.0060106 65.79,75.52 C65.79,75.0339894 66.1839894,74.64 66.67,74.64 Z M20.25,74.64 C20.7360106,74.64 21.13,75.0339894 21.13,75.52 C21.13,76.0060106 20.7360106,76.4 20.25,76.4 C19.7639894,76.4 19.37,76.0060106 19.37,75.52 C19.37,75.0339894 19.7639894,74.64 20.25,74.64 Z M89.88,74.64 C90.3660106,74.64 90.76,75.0339894 90.76,75.52 C90.76,76.0060106 90.3660106,76.4 89.88,76.4 C89.3939894,76.4 89,76.0060106 89,75.52 C89,75.0339894 89.3939894,74.64 89.88,74.64 Z M57.39,74.64 C57.8760106,74.64 58.27,75.0339894 58.27,75.52 C58.27,76.0060106 57.8760106,76.4 57.39,76.4 C56.9039894,76.4 56.51,76.0060106 56.51,75.52 C56.51,75.0339894 56.9039894,74.64 57.39,74.64 Z M34.17,74.64 C34.6560106,74.64 35.05,75.0339894 35.05,75.52 C35.05,76.0060106 34.6560106,76.4 34.17,76.4 C33.6839894,76.4 33.29,76.0060106 33.29,75.52 C33.29,75.0339894 33.6839894,74.64 34.17,74.64 Z M75.8888726,74.6351532 L76,74.64 C76.4471952,74.6878754 76.786325,75.0652493 76.786325,75.515 C76.786325,75.9647507 76.4471952,76.3421246 76,76.39 C75.6650573,76.425858 75.3390337,76.2673649 75.160343,75.9818092 C74.9816524,75.6962536 74.9816524,75.3337464 75.160343,75.0481908 C75.3390337,74.7626351 75.6650573,74.604142 76,74.64 Z M38.7088726,74.6351532 L38.82,74.64 C39.2671952,74.6878754 39.606325,75.0652493 39.606325,75.515 C39.606325,75.9647507 39.2671952,76.3421246 38.82,76.39 C38.4850573,76.425858 38.1590337,76.2673649 37.980343,75.9818092 C37.8016524,75.6962536 37.8016524,75.3337464 37.980343,75.0481908 C38.1590337,74.7626351 38.4850573,74.604142 38.82,74.64 Z M61.8888726,74.6351532 L62,74.64 C62.4471952,74.6878754 62.786325,75.0652493 62.786325,75.515 C62.786325,75.9647507 62.4471952,76.3421246 62,76.39 C61.6650573,76.425858 61.3390337,76.2673649 61.160343,75.9818092 C60.9816524,75.6962536 60.9816524,75.3337464 61.160343,75.0481908 C61.3390337,74.7626351 61.6650573,74.604142 62,74.64 Z M15.4988726,74.6351532 L15.61,74.64 C16.0571952,74.6878754 16.396325,75.0652493 16.396325,75.515 C16.396325,75.9647507 16.0571952,76.3421246 15.61,76.39 C15.2750573,76.425858 14.9490337,76.2673649 14.770343,75.9818092 C14.5916524,75.6962536 14.5916524,75.3337464 14.770343,75.0481908 C14.9490337,74.7626351 15.2750573,74.604142 15.61,74.64 Z M52.4085943,74.6989579 C52.7383218,74.5601925 53.1192392,74.6348437 53.3721978,74.8878022 C53.6251563,75.1407608 53.6998075,75.5216782 53.5610421,75.8514057 C53.4222768,76.1811332 53.0977146,76.3940424 52.74,76.39 C52.2595123,76.39 51.87,76.0004877 51.87,75.52 C51.8659576,75.1622854 52.0788668,74.8377232 52.4085943,74.6989579 Z M24.5462518,74.6998912 C24.8747433,74.5605276 25.2548754,74.6333282 25.5086313,74.8842005 C25.7623872,75.1350728 25.8395273,75.5143481 25.7039268,75.8444109 C25.5683263,76.1744737 25.2468318,76.389977 24.89,76.39 C24.407868,76.3900311 24.0154788,76.0021008 24.01,75.52 C24.0059451,75.1631912 24.2177602,74.8392549 24.5462518,74.6998912 Z M47.7685943,74.6989579 C48.0983218,74.5601925 48.4792392,74.6348437 48.7321978,74.8878022 C48.9851563,75.1407608 49.0598075,75.5216782 48.9210421,75.8514057 C48.7822768,76.1811332 48.4577146,76.3940424 48.1,76.39 C47.6195123,76.39 47.23,76.0004877 47.23,75.52 C47.2259576,75.1622854 47.4388668,74.8377232 47.7685943,74.6989579 Z M84.9085943,74.6989579 C85.2383218,74.5601925 85.6192392,74.6348437 85.8721978,74.8878022 C86.1251563,75.1407608 86.1998075,75.5216782 86.0610421,75.8514057 C85.9222768,76.1811332 85.5977146,76.3940424 85.24,76.39 C84.7617687,76.3845957 84.3754043,75.9982313 84.37,75.52 C84.3659576,75.1622854 84.5788668,74.8377232 84.9085943,74.6989579 Z M29.1985943,74.6989579 C29.5283218,74.5601925 29.9092392,74.6348437 30.1621978,74.8878022 C30.4151563,75.1407608 30.4898075,75.5216782 30.3510421,75.8514057 C30.2122768,76.1811332 29.8877146,76.3940424 29.53,76.39 C29.0495123,76.39 28.66,76.0004877 28.66,75.52 C28.6559576,75.1622854 28.8688668,74.8377232 29.1985943,74.6989579 Z M70.9785943,74.6989579 C71.3083218,74.5601925 71.6892392,74.6348437 71.9421978,74.8878022 C72.1951563,75.1407608 72.2698075,75.5216782 72.1310421,75.8514057 C71.9922768,76.1811332 71.6677146,76.3940424 71.31,76.39 C70.8295123,76.39 70.44,76.0004877 70.44,75.52 C70.4359576,75.1622854 70.6488668,74.8377232 70.9785943,74.6989579 Z M43.3488726,69.9951532 L43.46,70 C43.9071952,70.0478754 44.246325,70.4252493 44.246325,70.875 C44.246325,71.3247507 43.9071952,71.7021246 43.46,71.75 C43.1250573,71.785858 42.7990337,71.6273649 42.620343,71.3418092 C42.4416524,71.0562536 42.4416524,70.6937464 42.620343,70.4081908 C42.7990337,70.1226351 43.1250573,69.964142 43.46,70 Z M61.8888726,69.9951532 L62,70 C62.4471952,70.0478754 62.786325,70.4252493 62.786325,70.875 C62.786325,71.3247507 62.4471952,71.7021246 62,71.75 C61.6650573,71.785858 61.3390337,71.6273649 61.160343,71.3418092 C60.9816524,71.0562536 60.9816524,70.6937464 61.160343,70.4081908 C61.3390337,70.1226351 61.6650573,69.964142 62,70 Z M84.9085943,70.0589579 C85.2383218,69.9201925 85.6192392,69.9948437 85.8721978,70.2478022 C86.1251563,70.5007608 86.1998075,70.8816782 86.0610421,71.2114057 C85.9222768,71.5411332 85.5977146,71.7540424 85.24,71.75 C84.7617687,71.7445957 84.3754043,71.3582313 84.37,70.88 C84.3659576,70.5222854 84.5788668,70.1977232 84.9085943,70.0589579 Z M33.8385943,70.0589579 C34.1683218,69.9201925 34.5492392,69.9948437 34.8021978,70.2478022 C35.0551563,70.5007608 35.1298075,70.8816782 34.9910421,71.2114057 C34.8522768,71.5411332 34.5277146,71.7540424 34.17,71.75 C33.9392617,71.75 33.7179737,71.6583395 33.5548171,71.4951829 C33.3916605,71.3320263 33.3,71.1107383 33.3,70.88 C33.2959576,70.5222854 33.5088668,70.1977232 33.8385943,70.0589579 Z M24.5462518,70.0598912 C24.8747433,69.9205276 25.2548754,69.9933282 25.5086313,70.2442005 C25.7623872,70.4950728 25.8395273,70.8743481 25.7039268,71.2044109 C25.5683263,71.5344737 25.2468318,71.749977 24.89,71.75 C24.407868,71.7500311 24.0154788,71.3621008 24.01,70.88 C24.0059451,70.5231912 24.2177602,70.1992549 24.5462518,70.0598912 Z M75.6562518,70.0598912 C75.9847433,69.9205276 76.3648754,69.9933282 76.6186313,70.2442005 C76.8723872,70.4950728 76.9495273,70.8743481 76.8139268,71.2044109 C76.6783263,71.5344737 76.3568318,71.749977 76,71.75 C75.7675339,71.7526722 75.5436683,71.6621928 75.3783424,71.4987456 C75.2130165,71.3352984 75.1199846,71.1124815 75.12,70.88 C75.1159451,70.5231912 75.3277602,70.1992549 75.6562518,70.0598912 Z M66.3385943,70.0589579 C66.6683218,69.9201925 67.0492392,69.9948437 67.3021978,70.2478022 C67.5551563,70.5007608 67.6298075,70.8816782 67.4910421,71.2114057 C67.3522768,71.5411332 67.0277146,71.7540424 66.67,71.75 C66.1917687,71.7445957 65.8054043,71.3582313 65.8,70.88 C65.7959576,70.5222854 66.0088668,70.1977232 66.3385943,70.0589579 Z M80.2562518,70.0598912 C80.5847433,69.9205276 80.9648754,69.9933282 81.2186313,70.2442005 C81.4723872,70.4950728 81.5495273,70.8743481 81.4139268,71.2044109 C81.2783263,71.5344737 80.9568318,71.749977 80.6,71.75 C80.3675339,71.7526722 80.1436683,71.6621928 79.9783424,71.4987456 C79.8130165,71.3352984 79.7199846,71.1124815 79.72,70.88 C79.7159451,70.5231912 79.9277602,70.1992549 80.2562518,70.0598912 Z M47.7685943,70.0589579 C48.0983218,69.9201925 48.4792392,69.9948437 48.7321978,70.2478022 C48.9851563,70.5007608 49.0598075,70.8816782 48.9210421,71.2114057 C48.7822768,71.5411332 48.4577146,71.7540424 48.1,71.75 C47.8692617,71.75 47.6479737,71.6583395 47.4848171,71.4951829 C47.3216605,71.3320263 47.23,71.1107383 47.23,70.88 C47.2259576,70.5222854 47.4388668,70.1977232 47.7685943,70.0589579 Z M19.9062518,70.0598912 C20.2347433,69.9205276 20.6148754,69.9933282 20.8686313,70.2442005 C21.1223872,70.4950728 21.1995273,70.8743481 21.0639268,71.2044109 C20.9283263,71.5344737 20.6068318,71.749977 20.25,71.75 C20.0175339,71.7526722 19.7936683,71.6621928 19.6283424,71.4987456 C19.4630165,71.3352984 19.3699846,71.1124815 19.37,70.88 C19.3659451,70.5231912 19.5777602,70.1992549 19.9062518,70.0598912 Z M89.5485943,70.0589579 C89.8783218,69.9201925 90.2592392,69.9948437 90.5121978,70.2478022 C90.7651563,70.5007608 90.8398075,70.8816782 90.7010421,71.2114057 C90.5622768,71.5411332 90.2377146,71.7540424 89.88,71.75 C89.6492617,71.75 89.4279737,71.6583395 89.2648171,71.4951829 C89.1016605,71.3320263 89.01,71.1107383 89.01,70.88 C89.0059576,70.5222854 89.2188668,70.1977232 89.5485943,70.0589579 Z M52.4085943,70.0589579 C52.7383218,69.9201925 53.1192392,69.9948437 53.3721978,70.2478022 C53.6251563,70.5007608 53.6998075,70.8816782 53.5610421,71.2114057 C53.4222768,71.5411332 53.0977146,71.7540424 52.74,71.75 C52.5092617,71.75 52.2879737,71.6583395 52.1248171,71.4951829 C51.9616605,71.3320263 51.87,71.1107383 51.87,70.88 C51.8659576,70.5222854 52.0788668,70.1977232 52.4085943,70.0589579 Z M29.1985943,70.0589579 C29.5283218,69.9201925 29.9092392,69.9948437 30.1621978,70.2478022 C30.4151563,70.5007608 30.4898075,70.8816782 30.3510421,71.2114057 C30.2122768,71.5411332 29.8877146,71.7540424 29.53,71.75 C29.2992617,71.75 29.0779737,71.6583395 28.9148171,71.4951829 C28.7516605,71.3320263 28.66,71.1107383 28.66,70.88 C28.6559576,70.5222854 28.8688668,70.1977232 29.1985943,70.0589579 Z M70.9785943,70.0589579 C71.3083218,69.9201925 71.6892392,69.9948437 71.9421978,70.2478022 C72.1951563,70.5007608 72.2698075,70.8816782 72.1310421,71.2114057 C71.9922768,71.5411332 71.6677146,71.7540424 71.31,71.75 C70.8295123,71.75 70.44,71.3604877 70.44,70.88 C70.4359576,70.5222854 70.6488668,70.1977232 70.9785943,70.0589579 Z M57.0462518,70.0598912 C57.3747433,69.9205276 57.7548754,69.9933282 58.0086313,70.2442005 C58.2623872,70.4950728 58.3395273,70.8743481 58.2039268,71.2044109 C58.0683263,71.5344737 57.7468318,71.749977 57.39,71.75 C57.1575339,71.7526722 56.9336683,71.6621928 56.7683424,71.4987456 C56.6030165,71.3352984 56.5099846,71.1124815 56.51,70.88 C56.5059451,70.5231912 56.7177602,70.1992549 57.0462518,70.0598912 Z M38.4762518,70.0598912 C38.8047433,69.9205276 39.1848754,69.9933282 39.4386313,70.2442005 C39.6923872,70.4950728 39.7695273,70.8743481 39.6339268,71.2044109 C39.4983263,71.5344737 39.1768318,71.749977 38.82,71.75 C38.5875339,71.7526722 38.3636683,71.6621928 38.1983424,71.4987456 C38.0330165,71.3352984 37.9399846,71.1124815 37.94,70.88 C37.9359451,70.5231912 38.1477602,70.1992549 38.4762518,70.0598912 Z M85.24,65.36 C85.5749427,65.324142 85.9009663,65.4826351 86.079657,65.7681908 C86.2583476,66.0537464 86.2583476,66.4162536 86.079657,66.7018092 C85.9009663,66.9873649 85.5749427,67.145858 85.24,67.11 C84.7928048,67.0621246 84.453675,66.6847507 84.453675,66.235 C84.453675,65.7852493 84.7928048,65.4078754 85.24,65.36 Z M66.67,65.36 C67.0049427,65.324142 67.3309663,65.4826351 67.509657,65.7681908 C67.6883476,66.0537464 67.6883476,66.4162536 67.509657,66.7018092 C67.3309663,66.9873649 67.0049427,67.145858 66.67,67.11 C66.2228048,67.0621246 65.883675,66.6847507 65.883675,66.235 C65.883675,65.7852493 66.2228048,65.4078754 66.67,65.36 Z M33.8455891,65.4160732 C34.1756519,65.2804727 34.5549272,65.3576128 34.8057995,65.6113687 C35.0566718,65.8651246 35.1294724,66.2452567 34.9901088,66.5737482 C34.8507451,66.9022398 34.5268088,67.1140549 34.17,67.11 C33.9375185,67.1100154 33.7147016,67.0169835 33.5512544,66.8516576 C33.3878072,66.6863317 33.2973278,66.4624661 33.3,66.23 C33.300023,65.8731682 33.5155263,65.5516737 33.8455891,65.4160732 Z M61.6632386,65.416986 C61.992072,65.2807787 62.3705757,65.3560678 62.622254,65.607746 C62.8739322,65.8594243 62.9492213,66.237928 62.813014,66.5667614 C62.6768067,66.8955949 62.3559268,67.11 62,67.11 C61.7657898,67.1127079 61.5403816,67.0208637 61.374759,66.855241 C61.2091363,66.6896184 61.1172921,66.4642102 61.12,66.23 C61.12,65.8740732 61.3344051,65.5531933 61.6632386,65.416986 Z M43.1232386,65.416986 C43.452072,65.2807787 43.8305757,65.3560678 44.082254,65.607746 C44.3339322,65.8594243 44.4092213,66.237928 44.273014,66.5667614 C44.1368067,66.8955949 43.8159268,67.11 43.46,67.11 C43.2257898,67.1127079 43.0003816,67.0208637 42.834759,66.855241 C42.6691363,66.6896184 42.5772921,66.4642102 42.58,66.23 C42.58,65.8740732 42.7944051,65.5531933 43.1232386,65.416986 Z M75.6632386,65.416986 C75.992072,65.2807787 76.3705757,65.3560678 76.622254,65.607746 C76.8739322,65.8594243 76.9492213,66.237928 76.813014,66.5667614 C76.6768067,66.8955949 76.3559268,67.11 76,67.11 C75.7657898,67.1127079 75.5403816,67.0208637 75.374759,66.855241 C75.2091363,66.6896184 75.1172921,66.4642102 75.12,66.23 C75.12,65.8740732 75.3344051,65.5531933 75.6632386,65.416986 Z M24.5532386,65.416986 C24.882072,65.2807787 25.2605757,65.3560678 25.512254,65.607746 C25.7639322,65.8594243 25.8392213,66.237928 25.703014,66.5667614 C25.5668067,66.8955949 25.2459268,67.11 24.89,67.11 C24.4039894,67.11 24.01,66.7160106 24.01,66.23 C24.01,65.8740732 24.2244051,65.5531933 24.5532386,65.416986 Z M70.9855891,65.4160732 C71.3156519,65.2804727 71.6949272,65.3576128 71.9457995,65.6113687 C72.1966718,65.8651246 72.2694724,66.2452567 72.1301088,66.5737482 C71.9907451,66.9022398 71.6668088,67.1140549 71.31,67.11 C71.0775185,67.1100154 70.8547016,67.0169835 70.6912544,66.8516576 C70.5278072,66.6863317 70.4373278,66.4624661 70.44,66.23 C70.440023,65.8731682 70.6555263,65.5516737 70.9855891,65.4160732 Z M52.4155891,65.4160732 C52.7456519,65.2804727 53.1249272,65.3576128 53.3757995,65.6113687 C53.6266718,65.8651246 53.6994724,66.2452567 53.5601088,66.5737482 C53.4207451,66.9022398 53.0968088,67.1140549 52.74,67.11 C52.5075185,67.1100154 52.2847016,67.0169835 52.1212544,66.8516576 C51.9578072,66.6863317 51.8673278,66.4624661 51.87,66.23 C51.870023,65.8731682 52.0855263,65.5516737 52.4155891,65.4160732 Z M47.7755891,65.4160732 C48.1056519,65.2804727 48.4849272,65.3576128 48.7357995,65.6113687 C48.9866718,65.8651246 49.0594724,66.2452567 48.9201088,66.5737482 C48.7807451,66.9022398 48.4568088,67.1140549 48.1,67.11 C47.8675185,67.1100154 47.6447016,67.0169835 47.4812544,66.8516576 C47.3178072,66.6863317 47.2273278,66.4624661 47.23,66.23 C47.230023,65.8731682 47.4455263,65.5516737 47.7755891,65.4160732 Z M57.0532386,65.416986 C57.382072,65.2807787 57.7605757,65.3560678 58.012254,65.607746 C58.2639322,65.8594243 58.3392213,66.237928 58.203014,66.5667614 C58.0668067,66.8955949 57.7459268,67.11 57.39,67.11 C57.1557898,67.1127079 56.9303816,67.0208637 56.764759,66.855241 C56.5991363,66.6896184 56.5072921,66.4642102 56.51,66.23 C56.51,65.8740732 56.7244051,65.5531933 57.0532386,65.416986 Z M38.4832386,65.416986 C38.812072,65.2807787 39.1905757,65.3560678 39.442254,65.607746 C39.6939322,65.8594243 39.7692213,66.237928 39.633014,66.5667614 C39.4968067,66.8955949 39.1759268,67.11 38.82,67.11 C38.5857898,67.1127079 38.3603816,67.0208637 38.194759,66.855241 C38.0291363,66.6896184 37.9372921,66.4642102 37.94,66.23 C37.94,65.8740732 38.1544051,65.5531933 38.4832386,65.416986 Z M29.2055891,65.4160732 C29.5356519,65.2804727 29.9149272,65.3576128 30.1657995,65.6113687 C30.4166718,65.8651246 30.4894724,66.2452567 30.3501088,66.5737482 C30.2107451,66.9022398 29.8868088,67.1140549 29.53,67.11 C29.2975185,67.1100154 29.0747016,67.0169835 28.9112544,66.8516576 C28.7478072,66.6863317 28.6573278,66.4624661 28.66,66.23 C28.660023,65.8731682 28.8755263,65.5516737 29.2055891,65.4160732 Z M89.5555891,65.4160732 C89.8856519,65.2804727 90.2649272,65.3576128 90.5157995,65.6113687 C90.7666718,65.8651246 90.8394724,66.2452567 90.7001088,66.5737482 C90.5607451,66.9022398 90.2368088,67.1140549 89.88,67.11 C89.6475185,67.1100154 89.4247016,67.0169835 89.2612544,66.8516576 C89.0978072,66.6863317 89.0073278,66.4624661 89.01,66.23 C89.010023,65.8731682 89.2255263,65.5516737 89.5555891,65.4160732 Z M80.2632386,65.416986 C80.592072,65.2807787 80.9705757,65.3560678 81.222254,65.607746 C81.4739322,65.8594243 81.5492213,66.237928 81.413014,66.5667614 C81.2768067,66.8955949 80.9559268,67.11 80.6,67.11 C80.3657898,67.1127079 80.1403816,67.0208637 79.974759,66.855241 C79.8091363,66.6896184 79.7172921,66.4642102 79.72,66.23 C79.72,65.8740732 79.9344051,65.5531933 80.2632386,65.416986 Z M85.24,60.72 C85.5749427,60.684142 85.9009663,60.8426351 86.079657,61.1281908 C86.2583476,61.4137464 86.2583476,61.7762536 86.079657,62.0618092 C85.9009663,62.3473649 85.5749427,62.505858 85.24,62.47 C84.7928048,62.4221246 84.453675,62.0447507 84.453675,61.595 C84.453675,61.1452493 84.7928048,60.7678754 85.24,60.72 Z M29.2055891,60.7760732 C29.5356519,60.6404727 29.9149272,60.7176128 30.1657995,60.9713687 C30.4166718,61.2251246 30.4894724,61.6052567 30.3501088,61.9337482 C30.2107451,62.2622398 29.8868088,62.4740549 29.53,62.47 C29.2975185,62.4700154 29.0747016,62.3769835 28.9112544,62.2116576 C28.7478072,62.0463317 28.6573278,61.8224661 28.66,61.59 C28.660023,61.2331682 28.8755263,60.9116737 29.2055891,60.7760732 Z M43.46,60.71 C43.9460106,60.71 44.34,61.1039894 44.34,61.59 C44.34,62.0760106 43.9460106,62.47 43.46,62.47 C42.9739894,62.47 42.58,62.0760106 42.58,61.59 C42.58,61.1039894 42.9739894,60.71 43.46,60.71 Z M80.6,60.71 C81.0860106,60.71 81.48,61.1039894 81.48,61.59 C81.48,62.0760106 81.0860106,62.47 80.6,62.47 C80.1139894,62.47 79.72,62.0760106 79.72,61.59 C79.72,61.1039894 80.1139894,60.71 80.6,60.71 Z M66.67,60.71 C67.1560106,60.71 67.55,61.1039894 67.55,61.59 C67.55,62.0760106 67.1560106,62.47 66.67,62.47 C66.1839894,62.47 65.79,62.0760106 65.79,61.59 C65.79,61.1039894 66.1839894,60.71 66.67,60.71 Z M57.39,60.71 C57.8760106,60.71 58.27,61.1039894 58.27,61.59 C58.27,62.0760106 57.8760106,62.47 57.39,62.47 C56.9039894,62.47 56.51,62.0760106 56.51,61.59 C56.51,61.1039894 56.9039894,60.71 57.39,60.71 Z M47.7755891,60.7760732 C48.1056519,60.6404727 48.4849272,60.7176128 48.7357995,60.9713687 C48.9866718,61.2251246 49.0594724,61.6052567 48.9201088,61.9337482 C48.7807451,62.2622398 48.4568088,62.4740549 48.1,62.47 C47.8675185,62.4700154 47.6447016,62.3769835 47.4812544,62.2116576 C47.3178072,62.0463317 47.2273278,61.8224661 47.23,61.59 C47.230023,61.2331682 47.4455263,60.9116737 47.7755891,60.7760732 Z M89.88,60.71 C90.3660106,60.71 90.76,61.1039894 90.76,61.59 C90.76,62.0760106 90.3660106,62.47 89.88,62.47 C89.3939894,62.47 89,62.0760106 89,61.59 C89,61.1039894 89.3939894,60.71 89.88,60.71 Z M70.9855891,60.7760732 C71.3156519,60.6404727 71.6949272,60.7176128 71.9457995,60.9713687 C72.1966718,61.2251246 72.2694724,61.6052567 72.1301088,61.9337482 C71.9907451,62.2622398 71.6668088,62.4740549 71.31,62.47 C71.0775185,62.4700154 70.8547016,62.3769835 70.6912544,62.2116576 C70.5278072,62.0463317 70.4373278,61.8224661 70.44,61.59 C70.440023,61.2331682 70.6555263,60.9116737 70.9855891,60.7760732 Z M34.17,60.71 C34.6560106,60.71 35.05,61.1039894 35.05,61.59 C35.05,62.0760106 34.6560106,62.47 34.17,62.47 C33.6839894,62.47 33.29,62.0760106 33.29,61.59 C33.29,61.1039894 33.6839894,60.71 34.17,60.71 Z M52.4155891,60.7760732 C52.7456519,60.6404727 53.1249272,60.7176128 53.3757995,60.9713687 C53.6266718,61.2251246 53.6994724,61.6052567 53.5601088,61.9337482 C53.4207451,62.2622398 53.0968088,62.4740549 52.74,62.47 C52.5075185,62.4700154 52.2847016,62.3769835 52.1212544,62.2116576 C51.9578072,62.0463317 51.8673278,61.8224661 51.87,61.59 C51.870023,61.2331682 52.0855263,60.9116737 52.4155891,60.7760732 Z M76,60.71 C76.4860106,60.71 76.88,61.1039894 76.88,61.59 C76.88,62.0760106 76.4860106,62.47 76,62.47 C75.7657898,62.4727079 75.5403816,62.3808637 75.374759,62.215241 C75.2091363,62.0496184 75.1172921,61.8242102 75.12,61.59 C75.12,61.1039894 75.5139894,60.71 76,60.71 Z M62,60.71 C62.4860106,60.71 62.88,61.1039894 62.88,61.59 C62.88,62.0760106 62.4860106,62.47 62,62.47 C61.7657898,62.4727079 61.5403816,62.3808637 61.374759,62.215241 C61.2091363,62.0496184 61.1172921,61.8242102 61.12,61.59 C61.12,61.1039894 61.5139894,60.71 62,60.71 Z M38.82,60.71 C39.3060106,60.71 39.7,61.1039894 39.7,61.59 C39.7,62.0760106 39.3060106,62.47 38.82,62.47 C38.5857898,62.4727079 38.3603816,62.3808637 38.194759,62.215241 C38.0291363,62.0496184 37.9372921,61.8242102 37.94,61.59 C37.94,61.1039894 38.3339894,60.71 38.82,60.71 Z M52.4155891,56.1360732 C52.7456519,56.0004727 53.1249272,56.0776128 53.3757995,56.3313687 C53.6266718,56.5851246 53.6994724,56.9652567 53.5601088,57.2937482 C53.4207451,57.6222398 53.0968088,57.8340549 52.74,57.83 C52.2578992,57.8245212 51.8699689,57.432132 51.87,56.95 C51.870023,56.5931682 52.0855263,56.2716737 52.4155891,56.1360732 Z M84.9155891,56.1360732 C85.2456519,56.0004727 85.6249272,56.0776128 85.8757995,56.3313687 C86.1266718,56.5851246 86.1994724,56.9652567 86.0601088,57.2937482 C85.9207451,57.6222398 85.5968088,57.8340549 85.24,57.83 C84.7601556,57.8192432 84.3752723,57.429936 84.37,56.95 C84.370023,56.5931682 84.5855263,56.2716737 84.9155891,56.1360732 Z M57.39,56.07 C57.8760106,56.07 58.27,56.4639894 58.27,56.95 C58.27,57.4360106 57.8760106,57.83 57.39,57.83 C56.9039894,57.83 56.51,57.4360106 56.51,56.95 C56.51,56.4639894 56.9039894,56.07 57.39,56.07 Z M43.46,56.07 C43.9460106,56.07 44.34,56.4639894 44.34,56.95 C44.34,57.4360106 43.9460106,57.83 43.46,57.83 C42.9739894,57.83 42.58,57.4360106 42.58,56.95 C42.58,56.4639894 42.9739894,56.07 43.46,56.07 Z M33.8094465,56.1512052 C34.1373899,55.9996659 34.5246355,56.0639509 34.7860253,56.3133228 C35.0474152,56.5626948 35.1298423,56.9464883 34.9938947,57.2811961 C34.8579472,57.6159039 34.531246,57.8335226 34.17,57.83 C33.7067284,57.8254825 33.3263015,57.4625464 33.3,57 C33.2794909,56.6393195 33.4815031,56.3027446 33.8094465,56.1512052 Z M38.82,56.07 C39.3060106,56.07 39.7,56.4639894 39.7,56.95 C39.7,57.4360106 39.3060106,57.83 38.82,57.83 C38.3339894,57.83 37.94,57.4360106 37.94,56.95 C37.94,56.4639894 38.3339894,56.07 38.82,56.07 Z M76,56.07 C76.4860106,56.07 76.88,56.4639894 76.88,56.95 C76.88,57.4360106 76.4860106,57.83 76,57.83 C75.5139894,57.83 75.12,57.4360106 75.12,56.95 C75.12,56.4639894 75.5139894,56.07 76,56.07 Z M66.3094465,56.1512052 C66.6373899,55.9996659 67.0246355,56.0639509 67.2860253,56.3133228 C67.5474152,56.5626948 67.6298423,56.9464883 67.4938947,57.2811961 C67.3579472,57.6159039 67.031246,57.8335226 66.67,57.83 C66.2086958,57.8206748 65.8310113,57.4603551 65.8,57 C65.7794909,56.6393195 65.9815031,56.3027446 66.3094465,56.1512052 Z M89.507148,56.1522296 C89.8338305,56.0001312 90.2202322,56.0625734 90.4823798,56.3098262 C90.7445274,56.5570791 90.8294402,56.9391722 90.6966896,57.2741836 C90.5639389,57.6091949 90.240354,57.8294179 89.88,57.8300012 C89.4128644,57.8307546 89.0265412,57.4663816 89,57 C88.9795258,56.6402276 89.1804656,56.3043281 89.507148,56.1522296 Z M70.9855891,56.1360732 C71.3156519,56.0004727 71.6949272,56.0776128 71.9457995,56.3313687 C72.1966718,56.5851246 72.2694724,56.9652567 72.1301088,57.2937482 C71.9907451,57.6222398 71.6668088,57.8340549 71.31,57.83 C70.8278992,57.8245212 70.4399689,57.432132 70.44,56.95 C70.440023,56.5931682 70.6555263,56.2716737 70.9855891,56.1360732 Z M47.7755891,56.1360732 C48.1056519,56.0004727 48.4849272,56.0776128 48.7357995,56.3313687 C48.9866718,56.5851246 49.0594724,56.9652567 48.9201088,57.2937482 C48.7807451,57.6222398 48.4568088,57.8340549 48.1,57.83 C47.6178992,57.8245212 47.2299689,57.432132 47.23,56.95 C47.230023,56.5931682 47.4455263,56.2716737 47.7755891,56.1360732 Z M80.6,56.07 C81.0860106,56.07 81.48,56.4639894 81.48,56.95 C81.48,57.4360106 81.0860106,57.83 80.6,57.83 C80.1139894,57.83 79.72,57.4360106 79.72,56.95 C79.72,56.4639894 80.1139894,56.07 80.6,56.07 Z M62,56.07 C62.4860106,56.07 62.88,56.4639894 62.88,56.95 C62.88,57.4360106 62.4860106,57.83 62,57.83 C61.5139894,57.83 61.12,57.4360106 61.12,56.95 C61.12,56.4639894 61.5139894,56.07 62,56.07 Z M80.6,51.43 C81.0860106,51.43 81.48,51.8239894 81.48,52.31 C81.48,52.7960106 81.0860106,53.19 80.6,53.19 C80.1139894,53.19 79.72,52.7960106 79.72,52.31 C79.72,51.8239894 80.1139894,51.43 80.6,51.43 Z M57.39,51.43 C57.8760106,51.43 58.27,51.8239894 58.27,52.31 C58.27,52.7960106 57.8760106,53.19 57.39,53.19 C56.9039894,53.19 56.51,52.7960106 56.51,52.31 C56.51,51.8239894 56.9039894,51.43 57.39,51.43 Z M43.46,51.43 C43.9460106,51.43 44.34,51.8239894 44.34,52.31 C44.34,52.7960106 43.9460106,53.19 43.46,53.19 C42.9739894,53.19 42.58,52.7960106 42.58,52.31 C42.58,51.8239894 42.9739894,51.43 43.46,51.43 Z M66.67,51.43 C67.1560106,51.43 67.55,51.8239894 67.55,52.31 C67.55,52.7960106 67.1560106,53.19 66.67,53.19 C66.1839894,53.19 65.79,52.7960106 65.79,52.31 C65.79,51.8239894 66.1839894,51.43 66.67,51.43 Z M89.88,51.43 C90.3660106,51.43 90.76,51.8239894 90.76,52.31 C90.76,52.7960106 90.3660106,53.19 89.88,53.19 C89.3939894,53.19 89,52.7960106 89,52.31 C89,51.8239894 89.3939894,51.43 89.88,51.43 Z M61.8888726,51.4251532 L62,51.43 C62.4471952,51.4778754 62.786325,51.8552493 62.786325,52.305 C62.786325,52.7547507 62.4471952,53.1321246 62,53.18 C61.6650573,53.215858 61.3390337,53.0573649 61.160343,52.7718092 C60.9816524,52.4862536 60.9816524,52.1237464 61.160343,51.8381908 C61.3390337,51.5526351 61.6650573,51.394142 62,51.43 Z M52.4085943,51.4889579 C52.7383218,51.3501925 53.1192392,51.4248437 53.3721978,51.6778022 C53.6251563,51.9307608 53.6998075,52.3116782 53.5610421,52.6414057 C53.4222768,52.9711332 53.0977146,53.1840424 52.74,53.18 C52.5092617,53.18 52.2879737,53.0883395 52.1248171,52.9251829 C51.9616605,52.7620263 51.87,52.5407383 51.87,52.31 C51.8659576,51.9522854 52.0788668,51.6277232 52.4085943,51.4889579 Z M84.9085943,51.4889579 C85.2383218,51.3501925 85.6192392,51.4248437 85.8721978,51.6778022 C86.1251563,51.9307608 86.1998075,52.3116782 86.0610421,52.6414057 C85.9222768,52.9711332 85.5977146,53.1840424 85.24,53.18 C84.7617687,53.1745957 84.3754043,52.7882313 84.37,52.31 C84.3659576,51.9522854 84.5788668,51.6277232 84.9085943,51.4889579 Z M70.9785943,51.4889579 C71.3083218,51.3501925 71.6892392,51.4248437 71.9421978,51.6778022 C72.1951563,51.9307608 72.2698075,52.3116782 72.1310421,52.6414057 C71.9922768,52.9711332 71.6677146,53.1840424 71.31,53.18 C70.8295123,53.18 70.44,52.7904877 70.44,52.31 C70.4359576,51.9522854 70.6488668,51.6277232 70.9785943,51.4889579 Z M47.7685943,51.4889579 C48.0983218,51.3501925 48.4792392,51.4248437 48.7321978,51.6778022 C48.9851563,51.9307608 49.0598075,52.3116782 48.9210421,52.6414057 C48.7822768,52.9711332 48.4577146,53.1840424 48.1,53.18 C47.8692617,53.18 47.6479737,53.0883395 47.4848171,52.9251829 C47.3216605,52.7620263 47.23,52.5407383 47.23,52.31 C47.2259576,51.9522854 47.4388668,51.6277232 47.7685943,51.4889579 Z M75.6562518,51.4898912 C75.9847433,51.3505276 76.3648754,51.4233282 76.6186313,51.6742005 C76.8723872,51.9250728 76.9495273,52.3043481 76.8139268,52.6344109 C76.6783263,52.9644737 76.3568318,53.179977 76,53.18 C75.7675339,53.1826722 75.5436683,53.0921928 75.3783424,52.9287456 C75.2130165,52.7652984 75.1199846,52.5424815 75.12,52.31 C75.1159451,51.9531912 75.3277602,51.6292549 75.6562518,51.4898912 Z M38.4762518,51.4898912 C38.8047433,51.3505276 39.1848754,51.4233282 39.4386313,51.6742005 C39.6923872,51.9250728 39.7695273,52.3043481 39.6339268,52.6344109 C39.4983263,52.9644737 39.1768318,53.179977 38.82,53.18 C38.5875339,53.1826722 38.3636683,53.0921928 38.1983424,52.9287456 C38.0330165,52.7652984 37.9399846,52.5424815 37.94,52.31 C37.9359451,51.9531912 38.1477602,51.6292549 38.4762518,51.4898912 Z M80.6,46.79 C81.0860106,46.79 81.48,47.1839894 81.48,47.67 C81.48,48.1560106 81.0860106,48.55 80.6,48.55 C80.1139894,48.55 79.72,48.1560106 79.72,47.67 C79.72,47.1839894 80.1139894,46.79 80.6,46.79 Z M89.88,46.79 C90.3660106,46.79 90.76,47.1839894 90.76,47.67 C90.76,48.1560106 90.3660106,48.55 89.88,48.55 C89.3939894,48.55 89,48.1560106 89,47.67 C89,47.1839894 89.3939894,46.79 89.88,46.79 Z M66.67,46.79 C67.1560106,46.79 67.55,47.1839894 67.55,47.67 C67.55,48.1560106 67.1560106,48.55 66.67,48.55 C66.1839894,48.55 65.79,48.1560106 65.79,47.67 C65.79,47.1839894 66.1839894,46.79 66.67,46.79 Z M57.39,46.79 C57.8760106,46.79 58.27,47.1839894 58.27,47.67 C58.27,48.1560106 57.8760106,48.55 57.39,48.55 C56.9039894,48.55 56.51,48.1560106 56.51,47.67 C56.51,47.1839894 56.9039894,46.79 57.39,46.79 Z M43.46,46.79 C43.9460106,46.79 44.34,47.1839894 44.34,47.67 C44.34,48.1560106 43.9460106,48.55 43.46,48.55 C42.9739894,48.55 42.58,48.1560106 42.58,47.67 C42.58,47.1839894 42.9739894,46.79 43.46,46.79 Z M61.8888726,46.7851532 L62,46.79 C62.4471952,46.8378754 62.786325,47.2152493 62.786325,47.665 C62.786325,48.1147507 62.4471952,48.4921246 62,48.54 C61.6650573,48.575858 61.3390337,48.4173649 61.160343,48.1318092 C60.9816524,47.8462536 60.9816524,47.4837464 61.160343,47.1981908 C61.3390337,46.9126351 61.6650573,46.754142 62,46.79 Z M75.6562518,46.8498912 C75.9847433,46.7105276 76.3648754,46.7833282 76.6186313,47.0342005 C76.8723872,47.2850728 76.9495273,47.6643481 76.8139268,47.9944109 C76.6783263,48.3244737 76.3568318,48.539977 76,48.54 C75.7675339,48.5426722 75.5436683,48.4521928 75.3783424,48.2887456 C75.2130165,48.1252984 75.1199846,47.9024815 75.12,47.67 C75.1159451,47.3131912 75.3277602,46.9892549 75.6562518,46.8498912 Z M47.7685943,46.8489579 C48.0983218,46.7101925 48.4792392,46.7848437 48.7321978,47.0378022 C48.9851563,47.2907608 49.0598075,47.6716782 48.9210421,48.0014057 C48.7822768,48.3311332 48.4577146,48.5440424 48.1,48.54 C47.6195123,48.54 47.23,48.1504877 47.23,47.67 C47.2259576,47.3122854 47.4388668,46.9877232 47.7685943,46.8489579 Z M52.4085943,46.8489579 C52.7383218,46.7101925 53.1192392,46.7848437 53.3721978,47.0378022 C53.6251563,47.2907608 53.6998075,47.6716782 53.5610421,48.0014057 C53.4222768,48.3311332 53.0977146,48.5440424 52.74,48.54 C52.2595123,48.54 51.87,48.1504877 51.87,47.67 C51.8659576,47.3122854 52.0788668,46.9877232 52.4085943,46.8489579 Z M84.9085943,46.8489579 C85.2383218,46.7101925 85.6192392,46.7848437 85.8721978,47.0378022 C86.1251563,47.2907608 86.1998075,47.6716782 86.0610421,48.0014057 C85.9222768,48.3311332 85.5977146,48.5440424 85.24,48.54 C84.7617687,48.5345957 84.3754043,48.1482313 84.37,47.67 C84.3659576,47.3122854 84.5788668,46.9877232 84.9085943,46.8489579 Z M70.9785943,46.8489579 C71.3083218,46.7101925 71.6892392,46.7848437 71.9421978,47.0378022 C72.1951563,47.2907608 72.2698075,47.6716782 72.1310421,48.0014057 C71.9922768,48.3311332 71.6677146,48.5440424 71.31,48.54 C70.8295123,48.54 70.44,48.1504877 70.44,47.67 C70.4359576,47.3122854 70.6488668,46.9877232 70.9785943,46.8489579 Z M66.67,42.15 C67.0049427,42.114142 67.3309663,42.2726351 67.509657,42.5581908 C67.6883476,42.8437464 67.6883476,43.2062536 67.509657,43.4918092 C67.3309663,43.7773649 67.0049427,43.935858 66.67,43.9 C66.2228048,43.8521246 65.883675,43.4747507 65.883675,43.025 C65.883675,42.5752493 66.2228048,42.1978754 66.67,42.15 Z M85.24,42.15 C85.5749427,42.114142 85.9009663,42.2726351 86.079657,42.5581908 C86.2583476,42.8437464 86.2583476,43.2062536 86.079657,43.4918092 C85.9009663,43.7773649 85.5749427,43.935858 85.24,43.9 C84.7928048,43.8521246 84.453675,43.4747507 84.453675,43.025 C84.453675,42.5752493 84.7928048,42.1978754 85.24,42.15 Z M52.4155891,42.2060732 C52.7456519,42.0704727 53.1249272,42.1476128 53.3757995,42.4013687 C53.6266718,42.6551246 53.6994724,43.0352567 53.5601088,43.3637482 C53.4207451,43.6922398 53.0968088,43.9040549 52.74,43.9 C52.5075185,43.9000154 52.2847016,43.8069835 52.1212544,43.6416576 C51.9578072,43.4763317 51.8673278,43.2524661 51.87,43.02 C51.870023,42.6631682 52.0855263,42.3416737 52.4155891,42.2060732 Z M89.8930309,42.1400999 C90.3763554,42.1473826 90.7633276,42.5431496 90.7597486,43.0265157 C90.7561696,43.5098818 90.3633793,43.8998751 89.88,43.9 C89.6422382,43.9028751 89.4136602,43.8083096 89.2474246,43.6382959 C89.081189,43.4682823 88.9917833,43.2376372 89,43 C89.0109859,42.5167455 89.4097064,42.1328172 89.8930309,42.1400999 Z M47.7755891,42.2060732 C48.1056519,42.0704727 48.4849272,42.1476128 48.7357995,42.4013687 C48.9866718,42.6551246 49.0594724,43.0352567 48.9201088,43.3637482 C48.7807451,43.6922398 48.4568088,43.9040549 48.1,43.9 C47.8675185,43.9000154 47.6447016,43.8069835 47.4812544,43.6416576 C47.3178072,43.4763317 47.2273278,43.2524661 47.23,43.02 C47.230023,42.6631682 47.4455263,42.3416737 47.7755891,42.2060732 Z M62,42.14 C62.4860106,42.14 62.88,42.5339894 62.88,43.02 C62.88,43.5060106 62.4860106,43.9 62,43.9 C61.7657898,43.9027079 61.5403816,43.8108637 61.374759,43.645241 C61.2091363,43.4796184 61.1172921,43.2542102 61.12,43.02 C61.12,42.5339894 61.5139894,42.14 62,42.14 Z M80.6,42.14 C81.0860106,42.14 81.48,42.5339894 81.48,43.02 C81.48,43.5060106 81.0860106,43.9 80.6,43.9 C80.3657898,43.9027079 80.1403816,43.8108637 79.974759,43.645241 C79.8091363,43.4796184 79.7172921,43.2542102 79.72,43.02 C79.72,42.5339894 80.1139894,42.14 80.6,42.14 Z M70.9855891,42.2060732 C71.3156519,42.0704727 71.6949272,42.1476128 71.9457995,42.4013687 C72.1966718,42.6551246 72.2694724,43.0352567 72.1301088,43.3637482 C71.9907451,43.6922398 71.6668088,43.9040549 71.31,43.9 C71.0775185,43.9000154 70.8547016,43.8069835 70.6912544,43.6416576 C70.5278072,43.4763317 70.4373278,43.2524661 70.44,43.02 C70.440023,42.6631682 70.6555263,42.3416737 70.9855891,42.2060732 Z M76,42.14 C76.4860106,42.14 76.88,42.5339894 76.88,43.02 C76.88,43.5060106 76.4860106,43.9 76,43.9 C75.7657898,43.9027079 75.5403816,43.8108637 75.374759,43.645241 C75.2091363,43.4796184 75.1172921,43.2542102 75.12,43.02 C75.12,42.5339894 75.5139894,42.14 76,42.14 Z M57.39,42.14 C57.8760106,42.14 58.27,42.5339894 58.27,43.02 C58.27,43.5060106 57.8760106,43.9 57.39,43.9 C57.1557898,43.9027079 56.9303816,43.8108637 56.764759,43.645241 C56.5991363,43.4796184 56.5072921,43.2542102 56.51,43.02 C56.51,42.5339894 56.9039894,42.14 57.39,42.14 Z M71.31,37.51 C71.6449427,37.474142 71.9709663,37.6326351 72.149657,37.9181908 C72.3283476,38.2037464 72.3283476,38.5662536 72.149657,38.8518092 C71.9709663,39.1373649 71.6449427,39.295858 71.31,39.26 C70.8628048,39.2121246 70.523675,38.8347507 70.523675,38.385 C70.523675,37.9352493 70.8628048,37.5578754 71.31,37.51 Z M52.74,37.51 C53.0749427,37.474142 53.4009663,37.6326351 53.579657,37.9181908 C53.7583476,38.2037464 53.7583476,38.5662536 53.579657,38.8518092 C53.4009663,39.1373649 53.0749427,39.295858 52.74,39.26 C52.2928048,39.2121246 51.953675,38.8347507 51.953675,38.385 C51.953675,37.9352493 52.2928048,37.5578754 52.74,37.51 Z M85.24,37.51 C85.5749427,37.474142 85.9009663,37.6326351 86.079657,37.9181908 C86.2583476,38.2037464 86.2583476,38.5662536 86.079657,38.8518092 C85.9009663,39.1373649 85.5749427,39.295858 85.24,39.26 C84.7928048,39.2121246 84.453675,38.8347507 84.453675,38.385 C84.453675,37.9352493 84.7928048,37.5578754 85.24,37.51 Z M89.88,37.5 C90.3660106,37.5 90.76,37.8939894 90.76,38.38 C90.76,38.8660106 90.3660106,39.26 89.88,39.26 C89.3939894,39.26 89,38.8660106 89,38.38 C89,37.8939894 89.3939894,37.5 89.88,37.5 Z M62,37.5 C62.4860106,37.5 62.88,37.8939894 62.88,38.38 C62.88,38.8660106 62.4860106,39.26 62,39.26 C61.5139894,39.26 61.12,38.8660106 61.12,38.38 C61.12,37.8939894 61.5139894,37.5 62,37.5 Z M80.6,37.5 C81.0860106,37.5 81.48,37.8939894 81.48,38.38 C81.48,38.8660106 81.0860106,39.26 80.6,39.26 C80.1139894,39.26 79.72,38.8660106 79.72,38.38 C79.72,37.8939894 80.1139894,37.5 80.6,37.5 Z M66.67,37.5 C67.1560106,37.5 67.55,37.8939894 67.55,38.38 C67.55,38.8660106 67.1560106,39.26 66.67,39.26 C66.1839894,39.26 65.79,38.8660106 65.79,38.38 C65.79,37.8939894 66.1839894,37.5 66.67,37.5 Z M57.39,37.5 C57.8760106,37.5 58.27,37.8939894 58.27,38.38 C58.27,38.8660106 57.8760106,39.26 57.39,39.26 C56.9039894,39.26 56.51,38.8660106 56.51,38.38 C56.51,37.8939894 56.9039894,37.5 57.39,37.5 Z M76,37.5 C76.4860106,37.5 76.88,37.8939894 76.88,38.38 C76.88,38.8660106 76.4860106,39.26 76,39.26 C75.5139894,39.26 75.12,38.8660106 75.12,38.38 C75.12,37.8939894 75.5139894,37.5 76,37.5 Z M61.8888726,32.8551532 L62,32.86 C62.4471952,32.9078754 62.786325,33.2852493 62.786325,33.735 C62.786325,34.1847507 62.4471952,34.5621246 62,34.61 L62,34.61 C61.6650573,34.645858 61.3390337,34.4873649 61.160343,34.2018092 C60.9816524,33.9162536 60.9816524,33.5537464 61.160343,33.2681908 C61.3390337,32.9826351 61.6650573,32.824142 62,32.86 Z M80.2562518,32.9198912 C80.5847433,32.7805276 80.9648754,32.8533282 81.2186313,33.1042005 C81.4723872,33.3550728 81.5495273,33.7343481 81.4139268,34.0644109 C81.2783263,34.3944737 80.9568318,34.609977 80.6,34.61 C80.3675339,34.6126722 80.1436683,34.5221928 79.9783424,34.3587456 C79.8130165,34.1952984 79.7199846,33.9724815 79.72,33.74 C79.7159451,33.3831912 79.9277602,33.0592549 80.2562518,32.9198912 Z M70.9785943,32.9189579 C71.3083218,32.7801925 71.6892392,32.8548437 71.9421978,33.1078022 C72.1951563,33.3607608 72.2698075,33.7416782 72.1310421,34.0714057 C71.9922768,34.4011332 71.6677146,34.6140424 71.31,34.61 C70.8295123,34.61 70.44,34.2204877 70.44,33.74 C70.4359576,33.3822854 70.6488668,33.0577232 70.9785943,32.9189579 Z M84.9085943,32.9189579 C85.2383218,32.7801925 85.6192392,32.8548437 85.8721978,33.1078022 C86.1251563,33.3607608 86.1998075,33.7416782 86.0610421,34.0714057 C85.9222768,34.4011332 85.5977146,34.6140424 85.24,34.61 C84.7617687,34.6045957 84.3754043,34.2182313 84.37,33.74 C84.3659576,33.3822854 84.5788668,33.0577232 84.9085943,32.9189579 Z M57.0462518,32.9198912 C57.3747433,32.7805276 57.7548754,32.8533282 58.0086313,33.1042005 C58.2623872,33.3550728 58.3395273,33.7343481 58.2039268,34.0644109 C58.0683263,34.3944737 57.7468318,34.609977 57.39,34.61 C57.1575339,34.6126722 56.9336683,34.5221928 56.7683424,34.3587456 C56.6030165,34.1952984 56.5099846,33.9724815 56.51,33.74 C56.5059451,33.3831912 56.7177602,33.0592549 57.0462518,32.9198912 Z M75.6562518,32.9198912 C75.9847433,32.7805276 76.3648754,32.8533282 76.6186313,33.1042005 C76.8723872,33.3550728 76.9495273,33.7343481 76.8139268,34.0644109 C76.6783263,34.3944737 76.3568318,34.609977 76,34.61 C75.7675339,34.6126722 75.5436683,34.5221928 75.3783424,34.3587456 C75.2130165,34.1952984 75.1199846,33.9724815 75.12,33.74 C75.1159451,33.3831912 75.3277602,33.0592549 75.6562518,32.9198912 Z M89.5485943,32.9189579 C89.8783218,32.7801925 90.2592392,32.8548437 90.5121978,33.1078022 C90.7651563,33.3607608 90.8398075,33.7416782 90.7010421,34.0714057 C90.5622768,34.4011332 90.2377146,34.6140424 89.88,34.61 C89.3995123,34.61 89.01,34.2204877 89.01,33.74 C89.0059576,33.3822854 89.2188668,33.0577232 89.5485943,32.9189579 Z M66.3385943,32.9189579 C66.6683218,32.7801925 67.0492392,32.8548437 67.3021978,33.1078022 C67.5551563,33.3607608 67.6298075,33.7416782 67.4910421,34.0714057 C67.3522768,34.4011332 67.0277146,34.6140424 66.67,34.61 C66.1917687,34.6045957 65.8054043,34.2182313 65.8,33.74 C65.7959576,33.3822854 66.0088668,33.0577232 66.3385943,32.9189579 Z M61.8888726,28.2451532 L62,28.25 C62.4471952,28.2978754 62.786325,28.6752493 62.786325,29.125 C62.786325,29.5747507 62.4471952,29.9521246 62,30 C61.6650573,30.035858 61.3390337,29.8773649 61.160343,29.5918092 C60.9816524,29.3062536 60.9816524,28.9437464 61.160343,28.6581908 C61.3390337,28.3726351 61.6650573,28.214142 62,28.25 Z M75.6562518,28.3098912 C75.9847433,28.1705276 76.3648754,28.2433282 76.6186313,28.4942005 C76.8723872,28.7450728 76.9495273,29.1243481 76.8139268,29.4544109 C76.6783263,29.7844737 76.3568318,29.999977 76,30 C75.7675339,30.0026722 75.5436683,29.9121928 75.3783424,29.7487456 C75.2130165,29.5852984 75.1199846,29.3624815 75.12,29.13 C75.1159451,28.7731912 75.3277602,28.4492549 75.6562518,28.3098912 Z M80.2562518,28.3098912 C80.5847433,28.1705276 80.9648754,28.2433282 81.2186313,28.4942005 C81.4723872,28.7450728 81.5495273,29.1243481 81.4139268,29.4544109 C81.2783263,29.7844737 80.9568318,29.999977 80.6,30 C80.3675339,30.0026722 80.1436683,29.9121928 79.9783424,29.7487456 C79.8130165,29.5852984 79.7199846,29.3624815 79.72,29.13 C79.7159451,28.7731912 79.9277602,28.4492549 80.2562518,28.3098912 Z M70.9785943,28.3089579 C71.3083218,28.1701925 71.6892392,28.2448437 71.9421978,28.4978022 C72.1951563,28.7507608 72.2698075,29.1316782 72.1310421,29.4614057 C71.9922768,29.7911332 71.6677146,30.0040424 71.31,30 C70.8295123,30 70.44,29.6104877 70.44,29.13 C70.4359576,28.7722854 70.6488668,28.4477232 70.9785943,28.3089579 Z M89.5485943,28.3089579 C89.8783218,28.1701925 90.2592392,28.2448437 90.5121978,28.4978022 C90.7651563,28.7507608 90.8398075,29.1316782 90.7010421,29.4614057 C90.5622768,29.7911332 90.2377146,30.0040424 89.88,30 C89.3995123,30 89.01,29.6104877 89.01,29.13 C89.0059576,28.7722854 89.2188668,28.4477232 89.5485943,28.3089579 Z M66.3385943,28.3089579 C66.6683218,28.1701925 67.0492392,28.2448437 67.3021978,28.4978022 C67.5551563,28.7507608 67.6298075,29.1316782 67.4910421,29.4614057 C67.3522768,29.7911332 67.0277146,30.0040424 66.67,30 C66.1917687,29.9945957 65.8054043,29.6082313 65.8,29.13 C65.7959576,28.7722854 66.0088668,28.4477232 66.3385943,28.3089579 Z M84.9085943,28.3089579 C85.2383218,28.1701925 85.6192392,28.2448437 85.8721978,28.4978022 C86.1251563,28.7507608 86.1998075,29.1316782 86.0610421,29.4614057 C85.9222768,29.7911332 85.5977146,30.0040424 85.24,30 C84.7617687,29.9945957 84.3754043,29.6082313 84.37,29.13 C84.3659576,28.7722854 84.5788668,28.4477232 84.9085943,28.3089579 Z M85.24,23.58 C85.5749427,23.544142 85.9009663,23.7026351 86.079657,23.9881908 C86.2583476,24.2737464 86.2583476,24.6362536 86.079657,24.9218092 C85.9009663,25.2073649 85.5749427,25.365858 85.24,25.33 C84.7928048,25.2821246 84.453675,24.9047507 84.453675,24.455 C84.453675,24.0052493 84.7928048,23.6278754 85.24,23.58 Z M76,23.57 C76.4860106,23.57 76.88,23.9639894 76.88,24.45 C76.88,24.9360106 76.4860106,25.33 76,25.33 C75.7657898,25.3327079 75.5403816,25.2408637 75.374759,25.075241 C75.2091363,24.9096184 75.1172921,24.6842102 75.12,24.45 C75.12,23.9639894 75.5139894,23.57 76,23.57 Z M70.9855891,23.6360732 C71.3156519,23.5004727 71.6949272,23.5776128 71.9457995,23.8313687 C72.1966718,24.0851246 72.2694724,24.4652567 72.1301088,24.7937482 C71.9907451,25.1222398 71.6668088,25.3340549 71.31,25.33 C71.0775185,25.3300154 70.8547016,25.2369835 70.6912544,25.0716576 C70.5278072,24.9063317 70.4373278,24.6824661 70.44,24.45 C70.440023,24.0931682 70.6555263,23.7716737 70.9855891,23.6360732 Z M89.88,23.57 C90.3660106,23.57 90.76,23.9639894 90.76,24.45 C90.76,24.9360106 90.3660106,25.33 89.88,25.33 C89.3939894,25.33 89,24.9360106 89,24.45 C89,23.9639894 89.3939894,23.57 89.88,23.57 Z M66.67,23.57 C67.1560106,23.57 67.55,23.9639894 67.55,24.45 C67.55,24.9360106 67.1560106,25.33 66.67,25.33 C66.1839894,25.33 65.79,24.9360106 65.79,24.45 C65.79,23.9639894 66.1839894,23.57 66.67,23.57 Z M80.6,23.57 C81.0860106,23.57 81.48,23.9639894 81.48,24.45 C81.48,24.9360106 81.0860106,25.33 80.6,25.33 C80.1139894,25.33 79.72,24.9360106 79.72,24.45 C79.72,23.9639894 80.1139894,23.57 80.6,23.57 Z M85.24,18.94 C85.5749427,18.904142 85.9009663,19.0626351 86.079657,19.3481908 C86.2583476,19.6337464 86.2583476,19.9962536 86.079657,20.2818092 C85.9009663,20.5673649 85.5749427,20.725858 85.24,20.69 C84.7928048,20.6421246 84.453675,20.2647507 84.453675,19.815 C84.453675,19.3652493 84.7928048,18.9878754 85.24,18.94 Z M89.88,18.94 C90.2149427,18.904142 90.5409663,19.0626351 90.719657,19.3481908 C90.8983476,19.6337464 90.8983476,19.9962536 90.719657,20.2818092 C90.5409663,20.5673649 90.2149427,20.725858 89.88,20.69 C89.4328048,20.6421246 89.093675,20.2647507 89.093675,19.815 C89.093675,19.3652493 89.4328048,18.9878754 89.88,18.94 Z M71.31,18.94 C71.6449427,18.904142 71.9709663,19.0626351 72.149657,19.3481908 C72.3283476,19.6337464 72.3283476,19.9962536 72.149657,20.2818092 C71.9709663,20.5673649 71.6449427,20.725858 71.31,20.69 C70.8628048,20.6421246 70.523675,20.2647507 70.523675,19.815 C70.523675,19.3652493 70.8628048,18.9878754 71.31,18.94 Z M76,18.93 C76.4860106,18.93 76.88,19.3239894 76.88,19.81 C76.88,20.2960106 76.4860106,20.69 76,20.69 C75.7666095,20.69 75.542778,20.597286 75.377746,20.432254 C75.212714,20.267222 75.12,20.0433905 75.12,19.81 C75.12,19.3239894 75.5139894,18.93 76,18.93 Z M80.6,18.93 C81.0860106,18.93 81.48,19.3239894 81.48,19.81 C81.48,20.2960106 81.0860106,20.69 80.6,20.69 C80.3666095,20.69 80.142778,20.597286 79.977746,20.432254 C79.812714,20.267222 79.72,20.0433905 79.72,19.81 C79.72,19.3239894 80.1139894,18.93 80.6,18.93 Z M80.6,14.29 C81.0860106,14.29 81.48,14.6839894 81.48,15.17 C81.48,15.6560106 81.0860106,16.05 80.6,16.05 C80.1139894,16.05 79.72,15.6560106 79.72,15.17 C79.72,14.6839894 80.1139894,14.29 80.6,14.29 Z M89.88,14.29 C90.3660106,14.29 90.76,14.6839894 90.76,15.17 C90.76,15.6560106 90.3660106,16.05 89.88,16.05 C89.3939894,16.05 89,15.6560106 89,15.17 C89,14.6839894 89.3939894,14.29 89.88,14.29 Z M75.8888726,14.2451532 L76,14.25 C76.4471952,14.2978754 76.786325,14.6752493 76.786325,15.125 C76.786325,15.5747507 76.4471952,15.9521246 76,16 C75.6650573,16.035858 75.3390337,15.8773649 75.160343,15.5918092 C74.9816524,15.3062536 74.9816524,14.9437464 75.160343,14.6581908 C75.3390337,14.3726351 75.6650573,14.214142 76,14.25 Z M84.9085943,14.3089579 C85.2383218,14.1701925 85.6192392,14.2448437 85.8721978,14.4978022 C86.1251563,14.7507608 86.1998075,15.1316782 86.0610421,15.4614057 C85.9222768,15.7911332 85.5977146,16.0040424 85.24,16 C84.7617687,15.9945957 84.3754043,15.6082313 84.37,15.13 C84.3659576,14.7722854 84.5788668,14.4477232 84.9085943,14.3089579 Z M80.2562518,9.70989124 C80.5847433,9.57052756 80.9648754,9.64332822 81.2186313,9.89420051 C81.4723872,10.1450728 81.5495273,10.5243481 81.4139268,10.8544109 C81.2783263,11.1844737 80.9568318,11.399977 80.6,11.4 C80.3675339,11.4026722 80.1436683,11.3121928 79.9783424,11.1487456 C79.8130165,10.9852984 79.7199846,10.7624815 79.72,10.53 C79.7159451,10.1731912 79.9277602,9.84925493 80.2562518,9.70989124 Z M84.9085943,9.70895787 C85.2383218,9.57019252 85.6192392,9.64484368 85.8721978,9.89780222 C86.1251563,10.1507608 86.1998075,10.5316782 86.0610421,10.8614057 C85.9222768,11.1911332 85.5977146,11.4040424 85.24,11.4 C84.7617687,11.3945957 84.3754043,11.0082313 84.37,10.53 C84.3659576,10.1722854 84.5788668,9.84772321 84.9085943,9.70895787 Z M89.5485943,9.70895787 C89.8783218,9.57019252 90.2592392,9.64484368 90.5121978,9.89780222 C90.7651563,10.1507608 90.8398075,10.5316782 90.7010421,10.8614057 C90.5622768,11.1911332 90.2377146,11.4040424 89.88,11.4 C89.3995123,11.4 89.01,11.0104877 89.01,10.53 C89.0059576,10.1722854 89.2188668,9.84772321 89.5485943,9.70895787 Z M85.24,5.01 C85.5749427,4.974142 85.9009663,5.13263507 86.079657,5.41819075 C86.2583476,5.70374643 86.2583476,6.06625357 86.079657,6.35180925 C85.9009663,6.63736493 85.5749427,6.795858 85.24,6.76 C84.7928048,6.71212457 84.453675,6.33475065 84.453675,5.885 C84.453675,5.43524935 84.7928048,5.05787543 85.24,5.01 Z M89.5555891,5.06607319 C89.8856519,4.93047267 90.2649272,5.00761281 90.5157995,5.26136869 C90.7666718,5.51512458 90.8394724,5.89525666 90.7001088,6.22374825 C90.5607451,6.55223983 90.2368088,6.76405491 89.88,6.76 C89.6475185,6.76001536 89.4247016,6.66698347 89.2612544,6.50165758 C89.0978072,6.3363317 89.0073278,6.1124661 89.01,5.88 C89.010023,5.52316817 89.2255263,5.20167371 89.5555891,5.06607319 Z M89.88,0.36 C90.3660106,0.36 90.76,0.75398942 90.76,1.24 C90.76,1.72601058 90.3660106,2.12 89.88,2.12 C89.3939894,2.12 89,1.72601058 89,1.24 C89,0.75398942 89.3939894,0.36 89.88,0.36 Z" id="texture-triangle-gray" fill="#666666" fill-rule="nonzero"></path>
    </g>
</svg>